<mxfile host="65bd71144e">
    <diagram id="gZrH4UijesPYikmF6usk" name="Page-1">
        <mxGraphModel dx="550" dy="1545" grid="1" gridSize="10" guides="1" tooltips="1" connect="1" arrows="1" fold="1" page="1" pageScale="1" pageWidth="827" pageHeight="1169" background="#DAD2D8" math="0" shadow="0">
            <root>
                <mxCell id="0"/>
                <mxCell id="1" parent="0"/>
                <UserObject label="Partido" lucidchartObjectId="Is1tJ9RUC8ol" id="v1fNZO51GPil4yL1GlYa-55">
                    <mxCell style="html=1;overflow=block;blockSpacing=1;whiteSpace=wrap;;whiteSpace=wrap;fontSize=16.7;align=center;spacing=3.8;strokeOpacity=100;rounded=1;absoluteArcSize=1;arcSize=9;strokeWidth=2.3;fillColor=#FAE5C7;strokeColor=#0F8B8D;fontColor=#143642;" parent="1" vertex="1">
                        <mxGeometry x="478" y="405" width="120" height="90" as="geometry"/>
                    </mxCell>
                </UserObject>
                <UserObject label="Juega" lucidchartObjectId="Os1tLV6AKCQl" id="v1fNZO51GPil4yL1GlYa-56">
                    <mxCell style="html=1;overflow=block;blockSpacing=1;whiteSpace=wrap;shape=rhombus;whiteSpace=wrap;fontSize=16.7;align=center;spacing=3.8;strokeOpacity=100;rounded=1;absoluteArcSize=1;arcSize=9;strokeWidth=2.3;fillColor=#FAE5C7;strokeColor=#0F8B8D;fontColor=#143642;" parent="1" vertex="1">
                        <mxGeometry x="688" y="398" width="120" height="105" as="geometry"/>
                    </mxCell>
                </UserObject>
                <UserObject label="Equipo" lucidchartObjectId="Ws1t.OaLa7d4" id="v1fNZO51GPil4yL1GlYa-57">
                    <mxCell style="html=1;overflow=block;blockSpacing=1;whiteSpace=wrap;;whiteSpace=wrap;fontSize=16.7;align=center;spacing=3.8;strokeOpacity=100;rounded=1;absoluteArcSize=1;arcSize=9;strokeWidth=2.3;fillColor=#FAE5C7;strokeColor=#0F8B8D;fontColor=#143642;" parent="1" vertex="1">
                        <mxGeometry x="898" y="405" width="120" height="90" as="geometry"/>
                    </mxCell>
                </UserObject>
                <UserObject label="Arbrita" lucidchartObjectId="1s1tZxR6eFiv" id="v1fNZO51GPil4yL1GlYa-58">
                    <mxCell style="html=1;overflow=block;blockSpacing=1;whiteSpace=wrap;shape=rhombus;whiteSpace=wrap;fontSize=16.7;align=center;spacing=3.8;strokeOpacity=100;rounded=1;absoluteArcSize=1;arcSize=9;strokeWidth=2.3;fillColor=#FAE5C7;strokeColor=#0F8B8D;fontColor=#143642;" parent="1" vertex="1">
                        <mxGeometry x="478" y="150" width="120" height="105" as="geometry"/>
                    </mxCell>
                </UserObject>
                <UserObject label="Arbrito" lucidchartObjectId="-s1tbDHyhghZ" id="v1fNZO51GPil4yL1GlYa-59">
                    <mxCell style="html=1;overflow=block;blockSpacing=1;whiteSpace=wrap;;whiteSpace=wrap;fontSize=16.7;align=center;spacing=3.8;strokeOpacity=100;rounded=1;absoluteArcSize=1;arcSize=9;strokeWidth=2.3;fillColor=#FAE5C7;strokeColor=#0F8B8D;fontColor=#143642;" parent="1" vertex="1">
                        <mxGeometry x="733" y="158" width="120" height="90" as="geometry"/>
                    </mxCell>
                </UserObject>
                <UserObject label="Remlplaza" lucidchartObjectId="ct1tgxitlACp" id="v1fNZO51GPil4yL1GlYa-60">
                    <mxCell style="html=1;overflow=block;blockSpacing=1;whiteSpace=wrap;shape=rhombus;whiteSpace=wrap;fontSize=16.7;align=center;spacing=3.8;strokeOpacity=100;rounded=1;absoluteArcSize=1;arcSize=9;strokeWidth=2.3;fillColor=#FAE5C7;strokeColor=#0F8B8D;fontColor=#143642;" parent="1" vertex="1">
                        <mxGeometry x="958" y="150" width="120" height="105" as="geometry"/>
                    </mxCell>
                </UserObject>
                <UserObject label="&lt;font style=&quot;vertical-align: inherit&quot;&gt;&lt;font style=&quot;vertical-align: inherit&quot;&gt;Participa&lt;/font&gt;&lt;/font&gt;" lucidchartObjectId="lt1tY.4WJMS4" id="v1fNZO51GPil4yL1GlYa-61">
                    <mxCell style="html=1;overflow=block;blockSpacing=1;whiteSpace=wrap;shape=rhombus;whiteSpace=wrap;fontSize=16.7;align=center;spacing=3.8;strokeOpacity=100;rounded=1;absoluteArcSize=1;arcSize=9;strokeWidth=2.3;fillColor=#FAE5C7;strokeColor=#0F8B8D;fontColor=#143642;" parent="1" vertex="1">
                        <mxGeometry x="898" y="540" width="120" height="105" as="geometry"/>
                    </mxCell>
                </UserObject>
                <UserObject label="Ocurre" lucidchartObjectId="Nt1tzm8ugWbF" id="v1fNZO51GPil4yL1GlYa-62">
                    <mxCell style="html=1;overflow=block;blockSpacing=1;whiteSpace=wrap;shape=rhombus;whiteSpace=wrap;fontSize=16.7;align=center;spacing=3.8;strokeOpacity=100;rounded=1;absoluteArcSize=1;arcSize=9;strokeWidth=2.3;fillColor=#FAE5C7;strokeColor=#0F8B8D;fontColor=#143642;" parent="1" vertex="1">
                        <mxGeometry x="478" y="600" width="120" height="105" as="geometry"/>
                    </mxCell>
                </UserObject>
                <UserObject label="Estadio" lucidchartObjectId="0t1t-AN6Nnpw" id="v1fNZO51GPil4yL1GlYa-63">
                    <mxCell style="html=1;overflow=block;blockSpacing=1;whiteSpace=wrap;;whiteSpace=wrap;fontSize=16.7;align=center;spacing=3.8;strokeOpacity=100;rounded=1;absoluteArcSize=1;arcSize=9;strokeWidth=2.3;fillColor=#FAE5C7;strokeColor=#0F8B8D;fontColor=#143642;" parent="1" vertex="1">
                        <mxGeometry x="478" y="840" width="120" height="90" as="geometry"/>
                    </mxCell>
                </UserObject>
                <UserObject label="Asiste" lucidchartObjectId="_t1tmEWoqP6T" id="v1fNZO51GPil4yL1GlYa-64">
                    <mxCell style="html=1;overflow=block;blockSpacing=1;whiteSpace=wrap;shape=rhombus;whiteSpace=wrap;fontSize=16.7;align=center;spacing=3.8;strokeOpacity=100;rounded=1;absoluteArcSize=1;arcSize=9;strokeWidth=2.3;fillColor=#FAE5C7;strokeColor=#0F8B8D;fontColor=#143642;" parent="1" vertex="1">
                        <mxGeometry x="703" y="833" width="120" height="105" as="geometry"/>
                    </mxCell>
                </UserObject>
                <mxCell id="azxdWyeYkW4kS3EPx_k4-44" value="" style="edgeStyle=orthogonalEdgeStyle;rounded=0;orthogonalLoop=1;jettySize=auto;html=1;fontSize=14;strokeColor=#A8201A;fontColor=#143642;labelBackgroundColor=#DAD2D8;" parent="1" source="v1fNZO51GPil4yL1GlYa-65" target="azxdWyeYkW4kS3EPx_k4-40" edge="1">
                    <mxGeometry relative="1" as="geometry"/>
                </mxCell>
                <UserObject label="Hincha" lucidchartObjectId="cu1toX~Nml.E" id="v1fNZO51GPil4yL1GlYa-65">
                    <mxCell style="html=1;overflow=block;blockSpacing=1;whiteSpace=wrap;;whiteSpace=wrap;fontSize=16.7;align=center;spacing=3.8;strokeOpacity=100;rounded=1;absoluteArcSize=1;arcSize=9;strokeWidth=2.3;fillColor=#FAE5C7;strokeColor=#0F8B8D;fontColor=#143642;" parent="1" vertex="1">
                        <mxGeometry x="898" y="840" width="120" height="90" as="geometry"/>
                    </mxCell>
                </UserObject>
                <UserObject label="" lucidchartObjectId="Zu1tQtvbi7bp" id="v1fNZO51GPil4yL1GlYa-66">
                    <mxCell style="html=1;jettySize=18;whiteSpace=wrap;fontSize=13;strokeWidth=1.5;rounded=1;arcSize=12;edgeStyle=orthogonalEdgeStyle;startArrow=none;;endArrow=none;;exitX=0.993;exitY=0.5;exitPerimeter=0;entryX=-0.009;entryY=0.5;entryPerimeter=0;strokeColor=#A8201A;fontColor=#143642;labelBackgroundColor=#DAD2D8;" parent="1" source="v1fNZO51GPil4yL1GlYa-58" target="v1fNZO51GPil4yL1GlYa-59" edge="1">
                        <mxGeometry width="100" height="100" relative="1" as="geometry">
                            <Array as="points"/>
                        </mxGeometry>
                    </mxCell>
                </UserObject>
                <UserObject label="" lucidchartObjectId="2u1tAgFa54tj" id="v1fNZO51GPil4yL1GlYa-67">
                    <mxCell style="html=1;jettySize=18;whiteSpace=wrap;fontSize=13;strokeWidth=1.5;rounded=1;arcSize=12;edgeStyle=orthogonalEdgeStyle;startArrow=none;;endArrow=none;;exitX=1.009;exitY=0.5;exitPerimeter=0;entryX=0.007;entryY=0.5;entryPerimeter=0;strokeColor=#A8201A;fontColor=#143642;labelBackgroundColor=#DAD2D8;" parent="1" source="v1fNZO51GPil4yL1GlYa-59" target="v1fNZO51GPil4yL1GlYa-60" edge="1">
                        <mxGeometry width="100" height="100" relative="1" as="geometry">
                            <Array as="points"/>
                        </mxGeometry>
                    </mxCell>
                </UserObject>
                <UserObject label="" lucidchartObjectId="5u1tQZOQjABe" id="v1fNZO51GPil4yL1GlYa-68">
                    <mxCell style="html=1;jettySize=18;whiteSpace=wrap;fontSize=13;strokeWidth=1.5;rounded=1;arcSize=12;edgeStyle=orthogonalEdgeStyle;startArrow=none;;endArrow=none;;exitX=1.009;exitY=0.5;exitPerimeter=0;entryX=0.007;entryY=0.5;entryPerimeter=0;strokeColor=#A8201A;fontColor=#143642;labelBackgroundColor=#DAD2D8;" parent="1" source="v1fNZO51GPil4yL1GlYa-55" target="v1fNZO51GPil4yL1GlYa-56" edge="1">
                        <mxGeometry width="100" height="100" relative="1" as="geometry">
                            <Array as="points"/>
                        </mxGeometry>
                    </mxCell>
                </UserObject>
                <UserObject label="" lucidchartObjectId="7u1tM33WKWNM" id="v1fNZO51GPil4yL1GlYa-69">
                    <mxCell style="html=1;jettySize=18;whiteSpace=wrap;fontSize=13;strokeWidth=1.5;rounded=1;arcSize=12;edgeStyle=orthogonalEdgeStyle;startArrow=none;;endArrow=none;;exitX=-0.009;exitY=0.5;exitPerimeter=0;entryX=0.993;entryY=0.5;entryPerimeter=0;strokeColor=#A8201A;fontColor=#143642;labelBackgroundColor=#DAD2D8;" parent="1" source="v1fNZO51GPil4yL1GlYa-57" target="v1fNZO51GPil4yL1GlYa-56" edge="1">
                        <mxGeometry width="100" height="100" relative="1" as="geometry">
                            <Array as="points"/>
                        </mxGeometry>
                    </mxCell>
                </UserObject>
                <UserObject label="" lucidchartObjectId="_u1tB9cEThSF" id="v1fNZO51GPil4yL1GlYa-70">
                    <mxCell style="html=1;jettySize=18;whiteSpace=wrap;fontSize=13;strokeWidth=1.5;rounded=1;arcSize=12;edgeStyle=orthogonalEdgeStyle;startArrow=none;;endArrow=none;;exitX=0.5;exitY=1.013;exitPerimeter=0;entryX=0.5;entryY=0.006;entryPerimeter=0;strokeColor=#A8201A;fontColor=#143642;labelBackgroundColor=#DAD2D8;" parent="1" source="v1fNZO51GPil4yL1GlYa-55" target="v1fNZO51GPil4yL1GlYa-62" edge="1">
                        <mxGeometry width="100" height="100" relative="1" as="geometry">
                            <Array as="points"/>
                        </mxGeometry>
                    </mxCell>
                </UserObject>
                <UserObject label="" lucidchartObjectId="iv1tm1O-V-lk" id="v1fNZO51GPil4yL1GlYa-71">
                    <mxCell style="html=1;jettySize=18;whiteSpace=wrap;fontSize=13;strokeWidth=1.5;rounded=1;arcSize=12;edgeStyle=orthogonalEdgeStyle;startArrow=none;;endArrow=none;;exitX=0.5;exitY=0.994;exitPerimeter=0;entryX=0.5;entryY=-0.012;entryPerimeter=0;strokeColor=#A8201A;fontColor=#143642;labelBackgroundColor=#DAD2D8;" parent="1" source="v1fNZO51GPil4yL1GlYa-62" target="v1fNZO51GPil4yL1GlYa-63" edge="1">
                        <mxGeometry width="100" height="100" relative="1" as="geometry">
                            <Array as="points"/>
                        </mxGeometry>
                    </mxCell>
                </UserObject>
                <UserObject label="" lucidchartObjectId="Av1t-8LGgV3s" id="v1fNZO51GPil4yL1GlYa-72">
                    <mxCell style="html=1;jettySize=18;whiteSpace=wrap;fontSize=13;strokeWidth=1.5;rounded=1;arcSize=12;edgeStyle=orthogonalEdgeStyle;startArrow=none;;endArrow=none;;exitX=1.009;exitY=0.5;exitPerimeter=0;entryX=0.007;entryY=0.5;entryPerimeter=0;strokeColor=#A8201A;fontColor=#143642;labelBackgroundColor=#DAD2D8;" parent="1" source="v1fNZO51GPil4yL1GlYa-63" target="v1fNZO51GPil4yL1GlYa-64" edge="1">
                        <mxGeometry width="100" height="100" relative="1" as="geometry">
                            <Array as="points"/>
                        </mxGeometry>
                    </mxCell>
                </UserObject>
                <UserObject label="" lucidchartObjectId="Cv1t0k_hdNng" id="v1fNZO51GPil4yL1GlYa-73">
                    <mxCell style="html=1;jettySize=18;whiteSpace=wrap;fontSize=13;strokeWidth=1.5;rounded=1;arcSize=12;edgeStyle=orthogonalEdgeStyle;startArrow=none;;endArrow=none;;exitX=0.993;exitY=0.5;exitPerimeter=0;entryX=-0.009;entryY=0.5;entryPerimeter=0;strokeColor=#A8201A;fontColor=#143642;labelBackgroundColor=#DAD2D8;" parent="1" source="v1fNZO51GPil4yL1GlYa-64" target="v1fNZO51GPil4yL1GlYa-65" edge="1">
                        <mxGeometry width="100" height="100" relative="1" as="geometry">
                            <Array as="points"/>
                        </mxGeometry>
                    </mxCell>
                </UserObject>
                <UserObject label="" lucidchartObjectId="Hv1tCMj6ZqVS" id="v1fNZO51GPil4yL1GlYa-74">
                    <mxCell style="html=1;jettySize=18;whiteSpace=wrap;fontSize=13;strokeWidth=1.5;rounded=1;arcSize=12;edgeStyle=orthogonalEdgeStyle;startArrow=none;;endArrow=none;;exitX=0.5;exitY=-0.012;exitPerimeter=0;entryX=0.5;entryY=0.994;entryPerimeter=0;strokeColor=#A8201A;fontColor=#143642;labelBackgroundColor=#DAD2D8;" parent="1" source="v1fNZO51GPil4yL1GlYa-90" target="v1fNZO51GPil4yL1GlYa-61" edge="1">
                        <mxGeometry width="100" height="100" relative="1" as="geometry">
                            <Array as="points"/>
                        </mxGeometry>
                    </mxCell>
                </UserObject>
                <UserObject label="" lucidchartObjectId="Jv1tnSLFQvZv" id="v1fNZO51GPil4yL1GlYa-75">
                    <mxCell style="html=1;jettySize=18;whiteSpace=wrap;fontSize=13;strokeWidth=1.5;rounded=1;arcSize=12;edgeStyle=orthogonalEdgeStyle;startArrow=none;;endArrow=none;;exitX=0.5;exitY=0.006;exitPerimeter=0;entryX=0.5;entryY=1.013;entryPerimeter=0;strokeColor=#A8201A;fontColor=#143642;labelBackgroundColor=#DAD2D8;" parent="1" source="v1fNZO51GPil4yL1GlYa-61" target="v1fNZO51GPil4yL1GlYa-57" edge="1">
                        <mxGeometry width="100" height="100" relative="1" as="geometry">
                            <Array as="points"/>
                        </mxGeometry>
                    </mxCell>
                </UserObject>
                <UserObject label="" lucidchartObjectId="Vv1t4Tm2GzDO" id="v1fNZO51GPil4yL1GlYa-76">
                    <mxCell style="html=1;jettySize=18;whiteSpace=wrap;fontSize=13;strokeWidth=1.5;rounded=1;arcSize=12;edgeStyle=orthogonalEdgeStyle;startArrow=none;;endArrow=none;;exitX=0.5;exitY=1.013;exitPerimeter=0;entryX=0.5;entryY=0.994;entryPerimeter=0;strokeColor=#A8201A;fontColor=#143642;labelBackgroundColor=#DAD2D8;" parent="1" source="v1fNZO51GPil4yL1GlYa-59" target="v1fNZO51GPil4yL1GlYa-60" edge="1">
                        <mxGeometry width="100" height="100" relative="1" as="geometry">
                            <Array as="points">
                                <mxPoint x="793" y="290"/>
                                <mxPoint x="1018" y="290"/>
                            </Array>
                        </mxGeometry>
                    </mxCell>
                </UserObject>
                <UserObject label="" lucidchartObjectId="vx1taU1Kt.ui" id="v1fNZO51GPil4yL1GlYa-77">
                    <mxCell style="html=1;jettySize=18;whiteSpace=wrap;fontSize=13;strokeWidth=1.5;rounded=1;arcSize=12;edgeStyle=orthogonalEdgeStyle;startArrow=none;;endArrow=none;;exitX=0.5;exitY=-0.012;exitPerimeter=0;entryX=0.5;entryY=0.994;entryPerimeter=0;strokeColor=#A8201A;fontColor=#143642;labelBackgroundColor=#DAD2D8;" parent="1" source="v1fNZO51GPil4yL1GlYa-55" target="v1fNZO51GPil4yL1GlYa-58" edge="1">
                        <mxGeometry width="100" height="100" relative="1" as="geometry">
                            <Array as="points"/>
                        </mxGeometry>
                    </mxCell>
                </UserObject>
                <UserObject label="1,1" lucidchartObjectId="Fx1ty6U0bnnd" id="v1fNZO51GPil4yL1GlYa-78">
                    <mxCell style="html=1;overflow=block;blockSpacing=1;whiteSpace=wrap;;whiteSpace=wrap;fontSize=11.7;align=center;spacing=3.8;strokeOpacity=0;fillOpacity=0;rounded=1;absoluteArcSize=1;arcSize=9;strokeWidth=2.3;fillColor=#FAE5C7;strokeColor=#0F8B8D;fontColor=#143642;" parent="1" vertex="1">
                        <mxGeometry x="515" y="379" width="10" height="30" as="geometry"/>
                    </mxCell>
                </UserObject>
                <UserObject label="1,1" lucidchartObjectId="Zx1tJIhSpel8" id="v1fNZO51GPil4yL1GlYa-79">
                    <mxCell style="html=1;overflow=block;blockSpacing=1;whiteSpace=wrap;;whiteSpace=wrap;fontSize=11.7;align=center;spacing=3.8;strokeOpacity=0;fillOpacity=0;rounded=1;absoluteArcSize=1;arcSize=9;strokeWidth=2.3;fillColor=#FAE5C7;strokeColor=#0F8B8D;fontColor=#143642;" parent="1" vertex="1">
                        <mxGeometry x="673" y="180" width="90" height="30" as="geometry"/>
                    </mxCell>
                </UserObject>
                <UserObject label="&lt;div style=&quot;display: flex; justify-content: center; text-align: center; align-items: baseline; font-size: 0; line-height: 1.25;margin-top: -2px;&quot;&gt;&lt;span&gt;&lt;span style=&quot;font-size:11.7px;color:#1d262b;&quot;&gt;1,1&lt;/span&gt;&lt;span style=&quot;font-size:16px;color:#1d262b;&quot;&gt; &lt;/span&gt;&lt;/span&gt;&lt;/div&gt;" lucidchartObjectId=".x1tOz17EMCZ" id="v1fNZO51GPil4yL1GlYa-80">
                    <mxCell style="html=1;overflow=block;blockSpacing=1;whiteSpace=wrap;;whiteSpace=wrap;fontSize=13;spacing=3.8;strokeOpacity=0;fillOpacity=0;rounded=1;absoluteArcSize=1;arcSize=9;strokeWidth=2.3;fillColor=#FAE5C7;strokeColor=#0F8B8D;fontColor=#143642;" parent="1" vertex="1">
                        <mxGeometry x="823" y="180" width="90" height="30" as="geometry"/>
                    </mxCell>
                </UserObject>
                <UserObject label="&lt;div style=&quot;display: flex; justify-content: center; text-align: center; align-items: baseline; font-size: 0; line-height: 1.25;margin-top: -2px;&quot;&gt;&lt;span&gt;&lt;span style=&quot;font-size:11.7px;color:#1d262b;&quot;&gt;0,n&lt;/span&gt;&lt;span style=&quot;font-size:16px;color:#1d262b;&quot;&gt; &lt;/span&gt;&lt;/span&gt;&lt;/div&gt;" lucidchartObjectId="ly1te-1sxwxK" id="v1fNZO51GPil4yL1GlYa-81">
                    <mxCell style="html=1;overflow=block;blockSpacing=1;whiteSpace=wrap;;whiteSpace=wrap;fontSize=13;spacing=3.8;strokeOpacity=0;fillOpacity=0;rounded=1;absoluteArcSize=1;arcSize=9;strokeWidth=2.3;fillColor=#FAE5C7;strokeColor=#0F8B8D;fontColor=#143642;" parent="1" vertex="1">
                        <mxGeometry x="763" y="255" width="90" height="30" as="geometry"/>
                    </mxCell>
                </UserObject>
                <UserObject label="1,n" lucidchartObjectId="By1tnqBavsHy" id="v1fNZO51GPil4yL1GlYa-82">
                    <mxCell style="html=1;overflow=block;blockSpacing=1;whiteSpace=wrap;;whiteSpace=wrap;fontSize=11.7;align=center;spacing=3.8;strokeOpacity=0;fillOpacity=0;rounded=1;absoluteArcSize=1;arcSize=9;strokeWidth=2.3;fillColor=#FAE5C7;strokeColor=#0F8B8D;fontColor=#143642;" parent="1" vertex="1">
                        <mxGeometry x="568" y="420" width="90" height="30" as="geometry"/>
                    </mxCell>
                </UserObject>
                <UserObject label="1,n" lucidchartObjectId="Qy1tQQFKwK02" id="v1fNZO51GPil4yL1GlYa-83">
                    <mxCell style="html=1;overflow=block;blockSpacing=1;whiteSpace=wrap;;whiteSpace=wrap;fontSize=11.7;align=center;spacing=3.8;strokeOpacity=0;fillOpacity=0;rounded=1;absoluteArcSize=1;arcSize=9;strokeWidth=2.3;fillColor=#FAE5C7;strokeColor=#0F8B8D;fontColor=#143642;" parent="1" vertex="1">
                        <mxGeometry x="838" y="420" width="90" height="30" as="geometry"/>
                    </mxCell>
                </UserObject>
                <UserObject label="1,n" lucidchartObjectId="Wy1tan--hgUh" id="v1fNZO51GPil4yL1GlYa-84">
                    <mxCell style="html=1;overflow=block;blockSpacing=1;whiteSpace=wrap;;whiteSpace=wrap;fontSize=11.7;align=center;spacing=3.8;strokeOpacity=0;fillOpacity=0;rounded=1;absoluteArcSize=1;arcSize=9;strokeWidth=2.3;fillColor=#FAE5C7;strokeColor=#0F8B8D;fontColor=#143642;" parent="1" vertex="1">
                        <mxGeometry x="508" y="495" width="90" height="30" as="geometry"/>
                    </mxCell>
                </UserObject>
                <UserObject label="1,1" lucidchartObjectId="0y1tV2tN2bH9" id="v1fNZO51GPil4yL1GlYa-85">
                    <mxCell style="html=1;overflow=block;blockSpacing=1;whiteSpace=wrap;;whiteSpace=wrap;fontSize=11.7;align=center;spacing=3.8;strokeOpacity=0;fillOpacity=0;rounded=1;absoluteArcSize=1;arcSize=9;strokeWidth=2.3;fillColor=#FAE5C7;strokeColor=#0F8B8D;fontColor=#143642;" parent="1" vertex="1">
                        <mxGeometry x="508" y="810" width="90" height="30" as="geometry"/>
                    </mxCell>
                </UserObject>
                <UserObject label="1,n" lucidchartObjectId="-y1tEE_SI-Pq" id="v1fNZO51GPil4yL1GlYa-86">
                    <mxCell style="html=1;overflow=block;blockSpacing=1;whiteSpace=wrap;;whiteSpace=wrap;fontSize=11.7;align=center;spacing=3.8;strokeOpacity=0;fillOpacity=0;rounded=1;absoluteArcSize=1;arcSize=9;strokeWidth=2.3;fillColor=#FAE5C7;strokeColor=#0F8B8D;fontColor=#143642;" parent="1" vertex="1">
                        <mxGeometry x="568" y="885" width="90" height="30" as="geometry"/>
                    </mxCell>
                </UserObject>
                <UserObject label="1,n" lucidchartObjectId="dz1t~aymUD6A" id="v1fNZO51GPil4yL1GlYa-87">
                    <mxCell style="html=1;overflow=block;blockSpacing=1;whiteSpace=wrap;;whiteSpace=wrap;fontSize=11.7;align=center;spacing=3.8;strokeOpacity=0;fillOpacity=0;rounded=1;absoluteArcSize=1;arcSize=9;strokeWidth=2.3;fillColor=#FAE5C7;strokeColor=#0F8B8D;fontColor=#143642;" parent="1" vertex="1">
                        <mxGeometry x="838" y="885" width="90" height="30" as="geometry"/>
                    </mxCell>
                </UserObject>
                <UserObject label="1,1" lucidchartObjectId="mz1tg4nkg.Aq" id="v1fNZO51GPil4yL1GlYa-88">
                    <mxCell style="html=1;overflow=block;blockSpacing=1;whiteSpace=wrap;;whiteSpace=wrap;fontSize=11.7;align=center;spacing=3.8;strokeOpacity=0;fillOpacity=0;rounded=1;absoluteArcSize=1;arcSize=9;strokeWidth=2.3;fillColor=#FAE5C7;strokeColor=#0F8B8D;fontColor=#143642;" parent="1" vertex="1">
                        <mxGeometry x="928" y="495" width="90" height="30" as="geometry"/>
                    </mxCell>
                </UserObject>
                <UserObject label="1,n" lucidchartObjectId="tz1ttaikIvMV" id="v1fNZO51GPil4yL1GlYa-89">
                    <mxCell style="html=1;overflow=block;blockSpacing=1;whiteSpace=wrap;;whiteSpace=wrap;fontSize=11.7;align=center;spacing=3.8;strokeOpacity=0;fillOpacity=0;rounded=1;absoluteArcSize=1;arcSize=9;strokeWidth=2.3;fillColor=#FAE5C7;strokeColor=#0F8B8D;fontColor=#143642;" parent="1" vertex="1">
                        <mxGeometry x="928" y="675" width="90" height="30" as="geometry"/>
                    </mxCell>
                </UserObject>
                <UserObject label="Jugador" lucidchartObjectId="Gk_t_WrC-n9d" id="v1fNZO51GPil4yL1GlYa-90">
                    <mxCell style="html=1;overflow=block;blockSpacing=1;whiteSpace=wrap;shape=ext;double=1;whiteSpace=wrap;fontSize=13;spacing=3.8;strokeOpacity=100;rounded=1;absoluteArcSize=1;arcSize=9;strokeWidth=2.3;fillColor=#FAE5C7;strokeColor=#0F8B8D;fontColor=#143642;" parent="1" vertex="1">
                        <mxGeometry x="898" y="705" width="120" height="90" as="geometry"/>
                    </mxCell>
                </UserObject>
                <UserObject label="1:1" lucidchartObjectId="Fq_tediAlCs4" id="v1fNZO51GPil4yL1GlYa-92">
                    <mxCell style="html=1;overflow=block;blockSpacing=1;whiteSpace=wrap;;whiteSpace=wrap;fontSize=15;align=center;spacing=3.8;strokeOpacity=0;fillOpacity=0;rounded=1;absoluteArcSize=1;arcSize=9;strokeWidth=2.3;fillColor=#FAE5C7;strokeColor=#0F8B8D;fontColor=#143642;" parent="1" vertex="1">
                        <mxGeometry x="493" y="120" width="90" height="30" as="geometry"/>
                    </mxCell>
                </UserObject>
                <UserObject label="N:M" lucidchartObjectId="mr_tXB.PqsN2" id="v1fNZO51GPil4yL1GlYa-93">
                    <mxCell style="html=1;overflow=block;blockSpacing=1;whiteSpace=wrap;;whiteSpace=wrap;fontSize=15;align=center;spacing=3.8;strokeOpacity=0;fillOpacity=0;rounded=1;absoluteArcSize=1;arcSize=9;strokeWidth=2.3;fillColor=#FAE5C7;strokeColor=#0F8B8D;fontColor=#143642;" parent="1" vertex="1">
                        <mxGeometry x="703" y="368" width="90" height="30" as="geometry"/>
                    </mxCell>
                </UserObject>
                <UserObject label="1:N" lucidchartObjectId="xr_trbYKYTRt" id="v1fNZO51GPil4yL1GlYa-94">
                    <mxCell style="html=1;overflow=block;blockSpacing=1;whiteSpace=wrap;;whiteSpace=wrap;fontSize=15;align=center;spacing=3.8;strokeOpacity=0;fillOpacity=0;rounded=1;absoluteArcSize=1;arcSize=9;strokeWidth=2.3;fillColor=#FAE5C7;strokeColor=#0F8B8D;fontColor=#143642;" parent="1" vertex="1">
                        <mxGeometry x="568" y="638" width="90" height="30" as="geometry"/>
                    </mxCell>
                </UserObject>
                <UserObject label="N:M" lucidchartObjectId="Kr_t6RPk-m2t" id="v1fNZO51GPil4yL1GlYa-95">
                    <mxCell style="html=1;overflow=block;blockSpacing=1;whiteSpace=wrap;;whiteSpace=wrap;fontSize=15;align=center;spacing=3.8;strokeOpacity=0;fillOpacity=0;rounded=1;absoluteArcSize=1;arcSize=9;strokeWidth=2.3;fillColor=#FAE5C7;strokeColor=#0F8B8D;fontColor=#143642;" parent="1" vertex="1">
                        <mxGeometry x="718" y="803" width="90" height="30" as="geometry"/>
                    </mxCell>
                </UserObject>
                <UserObject label="1:N" lucidchartObjectId="Ur_tRYDdE_~Q" id="v1fNZO51GPil4yL1GlYa-96">
                    <mxCell style="html=1;overflow=block;blockSpacing=1;whiteSpace=wrap;;whiteSpace=wrap;fontSize=15;align=center;spacing=3.8;strokeOpacity=0;fillOpacity=0;rounded=1;absoluteArcSize=1;arcSize=9;strokeWidth=2.3;fillColor=#FAE5C7;strokeColor=#0F8B8D;fontColor=#143642;" parent="1" vertex="1">
                        <mxGeometry x="838" y="578" width="90" height="30" as="geometry"/>
                    </mxCell>
                </UserObject>
                <UserObject label="1:N" lucidchartObjectId="8r_tK~RZpYT9" id="v1fNZO51GPil4yL1GlYa-97">
                    <mxCell style="html=1;overflow=block;blockSpacing=1;whiteSpace=wrap;;whiteSpace=wrap;fontSize=15;align=center;spacing=3.8;strokeOpacity=0;fillOpacity=0;rounded=1;absoluteArcSize=1;arcSize=9;strokeWidth=2.3;fillColor=#FAE5C7;strokeColor=#0F8B8D;fontColor=#143642;" parent="1" vertex="1">
                        <mxGeometry x="973" y="120" width="90" height="30" as="geometry"/>
                    </mxCell>
                </UserObject>
                <UserObject label="" lucidchartObjectId="Wk~tcFr8fC1q" id="v1fNZO51GPil4yL1GlYa-98">
                    <mxCell style="html=1;jettySize=18;whiteSpace=wrap;fontSize=13;strokeWidth=1.5;rounded=1;arcSize=12;edgeStyle=orthogonalEdgeStyle;startArrow=none;;endArrow=none;;exitX=-0.009;exitY=0.167;exitPerimeter=0;entryX=1.108;entryY=0.5;entryPerimeter=0;strokeColor=#A8201A;fontColor=#143642;labelBackgroundColor=#DAD2D8;" parent="1" source="v1fNZO51GPil4yL1GlYa-55" target="v1fNZO51GPil4yL1GlYa-99" edge="1">
                        <mxGeometry width="100" height="100" relative="1" as="geometry">
                            <Array as="points"/>
                        </mxGeometry>
                    </mxCell>
                </UserObject>
                <UserObject label="Atributo" lucidchartObjectId="Zk~tZb-w3sKj" id="v1fNZO51GPil4yL1GlYa-99">
                    <mxCell style="html=1;overflow=block;blockSpacing=1;whiteSpace=wrap;ellipse;whiteSpace=wrap;fontSize=13;spacing=3.8;strokeOpacity=100;rounded=1;absoluteArcSize=1;arcSize=9;strokeWidth=2.3;noLabel=1;fillColor=#0F8B8D;strokeColor=#0F8B8D;fontColor=#143642;" parent="1" vertex="1">
                        <mxGeometry x="448" y="414" width="11" height="11" as="geometry"/>
                    </mxCell>
                </UserObject>
                <UserObject label="" lucidchartObjectId="yl~tORJ.H7FA" id="v1fNZO51GPil4yL1GlYa-100">
                    <mxCell style="html=1;jettySize=18;whiteSpace=wrap;fontSize=13;strokeWidth=1.5;rounded=1;arcSize=12;edgeStyle=orthogonalEdgeStyle;startArrow=none;;endArrow=none;;entryX=1.108;entryY=0.5;entryPerimeter=0;strokeColor=#A8201A;fontColor=#143642;labelBackgroundColor=#DAD2D8;" parent="1" target="v1fNZO51GPil4yL1GlYa-101" edge="1">
                        <mxGeometry width="100" height="100" relative="1" as="geometry">
                            <Array as="points"/>
                            <mxPoint x="477" y="456" as="sourcePoint"/>
                        </mxGeometry>
                    </mxCell>
                </UserObject>
                <UserObject label="Atributo" lucidchartObjectId="yl~t46uTt_mv" id="v1fNZO51GPil4yL1GlYa-101">
                    <mxCell style="html=1;overflow=block;blockSpacing=1;whiteSpace=wrap;ellipse;whiteSpace=wrap;fontSize=13;spacing=3.8;strokeOpacity=100;rounded=1;absoluteArcSize=1;arcSize=9;strokeWidth=2.3;noLabel=1;fillColor=#FAE5C7;strokeColor=#0F8B8D;fontColor=#143642;" parent="1" vertex="1">
                        <mxGeometry x="448" y="450" width="11" height="11" as="geometry"/>
                    </mxCell>
                </UserObject>
                <UserObject label="Atributo" lucidchartObjectId="Cl~tk_2E.ZyV" id="v1fNZO51GPil4yL1GlYa-102">
                    <mxCell style="html=1;overflow=block;blockSpacing=1;whiteSpace=wrap;ellipse;whiteSpace=wrap;fontSize=13;spacing=3.8;strokeOpacity=100;rounded=1;absoluteArcSize=1;arcSize=9;strokeWidth=2.3;noLabel=1;fillColor=#FAE5C7;strokeColor=#0F8B8D;fontColor=#143642;" parent="1" vertex="1">
                        <mxGeometry x="448" y="480" width="11" height="11" as="geometry"/>
                    </mxCell>
                </UserObject>
                <UserObject label="ID_partido" lucidchartObjectId="Ul~tUlK2QmgD" id="v1fNZO51GPil4yL1GlYa-103">
                    <mxCell style="html=1;overflow=block;blockSpacing=1;whiteSpace=wrap;;whiteSpace=wrap;fontSize=13;spacing=3.8;strokeOpacity=0;fillOpacity=0;rounded=1;absoluteArcSize=1;arcSize=9;strokeWidth=2.3;fillColor=#FAE5C7;strokeColor=#0F8B8D;fontColor=#143642;" parent="1" vertex="1">
                        <mxGeometry x="373" y="409" width="75" height="23" as="geometry"/>
                    </mxCell>
                </UserObject>
                <UserObject label="Duración" lucidchartObjectId="Qm~t1oRtlUaR" id="v1fNZO51GPil4yL1GlYa-104">
                    <mxCell style="html=1;overflow=block;blockSpacing=1;whiteSpace=wrap;;whiteSpace=wrap;fontSize=13;spacing=3.8;strokeOpacity=0;fillOpacity=0;rounded=1;absoluteArcSize=1;arcSize=9;strokeWidth=2.3;fillColor=#FAE5C7;strokeColor=#0F8B8D;fontColor=#143642;" parent="1" vertex="1">
                        <mxGeometry x="373" y="444" width="75" height="23" as="geometry"/>
                    </mxCell>
                </UserObject>
                <UserObject label="" lucidchartObjectId="3m~t2plVe_fq" id="v1fNZO51GPil4yL1GlYa-105">
                    <mxCell style="html=1;jettySize=18;whiteSpace=wrap;fontSize=13;strokeWidth=1.5;rounded=1;arcSize=12;edgeStyle=orthogonalEdgeStyle;startArrow=none;;endArrow=none;;exitX=1.108;exitY=0.5;exitPerimeter=0;entryX=-0.009;entryY=0.896;entryPerimeter=0;strokeColor=#A8201A;fontColor=#143642;labelBackgroundColor=#DAD2D8;" parent="1" source="v1fNZO51GPil4yL1GlYa-102" target="v1fNZO51GPil4yL1GlYa-55" edge="1">
                        <mxGeometry width="100" height="100" relative="1" as="geometry">
                            <Array as="points"/>
                        </mxGeometry>
                    </mxCell>
                </UserObject>
                <UserObject label="Fecha" lucidchartObjectId="en~tOdhD3nCY" id="v1fNZO51GPil4yL1GlYa-106">
                    <mxCell style="html=1;overflow=block;blockSpacing=1;whiteSpace=wrap;;whiteSpace=wrap;fontSize=13;spacing=3.8;strokeOpacity=0;fillOpacity=0;rounded=1;absoluteArcSize=1;arcSize=9;strokeWidth=2.3;fillColor=#FAE5C7;strokeColor=#0F8B8D;fontColor=#143642;" parent="1" vertex="1">
                        <mxGeometry x="384" y="472" width="75" height="23" as="geometry"/>
                    </mxCell>
                </UserObject>
                <UserObject label="" lucidchartObjectId="lo~tykg3V_NQ" id="v1fNZO51GPil4yL1GlYa-107">
                    <mxCell style="html=1;jettySize=18;whiteSpace=wrap;fontSize=13;strokeWidth=1.5;rounded=1;arcSize=12;edgeStyle=orthogonalEdgeStyle;startArrow=none;;endArrow=none;;strokeColor=#A8201A;fontColor=#143642;labelBackgroundColor=#DAD2D8;exitX=0.853;exitY=0.783;exitDx=0;exitDy=0;exitPerimeter=0;" parent="1" source="v1fNZO51GPil4yL1GlYa-106" edge="1">
                        <mxGeometry width="100" height="100" relative="1" as="geometry">
                            <Array as="points">
                                <mxPoint x="438" y="490"/>
                                <mxPoint x="438" y="512"/>
                                <mxPoint x="418" y="512"/>
                                <mxPoint x="418" y="532"/>
                            </Array>
                            <mxPoint x="451" y="491" as="sourcePoint"/>
                            <mxPoint x="418" y="532" as="targetPoint"/>
                        </mxGeometry>
                    </mxCell>
                </UserObject>
                <UserObject label="Atributo" lucidchartObjectId="8o~tOAyjSYGf" id="v1fNZO51GPil4yL1GlYa-108">
                    <mxCell style="html=1;overflow=block;blockSpacing=1;whiteSpace=wrap;ellipse;whiteSpace=wrap;fontSize=13;spacing=3.8;strokeOpacity=100;rounded=1;absoluteArcSize=1;arcSize=9;strokeWidth=2.3;noLabel=1;fillColor=#FAE5C7;strokeColor=#0F8B8D;fontColor=#143642;" parent="1" vertex="1">
                        <mxGeometry x="414" y="533" width="11" height="11" as="geometry"/>
                    </mxCell>
                </UserObject>
                <UserObject label="Atributo" lucidchartObjectId=".o~t0NCYRz4v" id="v1fNZO51GPil4yL1GlYa-109">
                    <mxCell style="html=1;overflow=block;blockSpacing=1;whiteSpace=wrap;ellipse;whiteSpace=wrap;fontSize=13;spacing=3.8;strokeOpacity=100;rounded=1;absoluteArcSize=1;arcSize=9;strokeWidth=2.3;noLabel=1;fillColor=#FAE5C7;strokeColor=#0F8B8D;fontColor=#143642;" parent="1" vertex="1">
                        <mxGeometry x="482" y="533" width="11" height="11" as="geometry"/>
                    </mxCell>
                </UserObject>
                <UserObject label="Día" lucidchartObjectId="xp~tj~EFRoTU" id="v1fNZO51GPil4yL1GlYa-111">
                    <mxCell style="html=1;overflow=block;blockSpacing=1;whiteSpace=wrap;;whiteSpace=wrap;fontSize=13;spacing=3.8;strokeOpacity=0;fillOpacity=0;rounded=1;absoluteArcSize=1;arcSize=9;strokeWidth=2.3;fillColor=#FAE5C7;strokeColor=#0F8B8D;fontColor=#143642;" parent="1" vertex="1">
                        <mxGeometry x="360" y="544" width="75" height="23" as="geometry"/>
                    </mxCell>
                </UserObject>
                <UserObject label="Hora" lucidchartObjectId="Ap~t5Ko8Knb-" id="v1fNZO51GPil4yL1GlYa-112">
                    <mxCell style="html=1;overflow=block;blockSpacing=1;whiteSpace=wrap;;whiteSpace=wrap;fontSize=13;spacing=3.8;strokeOpacity=0;fillOpacity=0;rounded=1;absoluteArcSize=1;arcSize=9;strokeWidth=2.3;fillColor=#FAE5C7;strokeColor=#0F8B8D;fontColor=#143642;" parent="1" vertex="1">
                        <mxGeometry x="450" y="544" width="75" height="23" as="geometry"/>
                    </mxCell>
                </UserObject>
                <UserObject label="Atributo" lucidchartObjectId="Aq~tH4LFVAZN" id="v1fNZO51GPil4yL1GlYa-113">
                    <mxCell style="html=1;overflow=block;blockSpacing=1;whiteSpace=wrap;ellipse;whiteSpace=wrap;fontSize=13;spacing=3.8;strokeOpacity=100;rounded=1;absoluteArcSize=1;arcSize=9;strokeWidth=2.3;noLabel=1;fillColor=#FAE5C7;strokeColor=#0F8B8D;fontColor=#143642;" parent="1" vertex="1">
                        <mxGeometry x="478" y="373" width="11" height="11" as="geometry"/>
                    </mxCell>
                </UserObject>
                <UserObject label="Fase&amp;nbsp;" lucidchartObjectId="Aq~tIrFguVq1" id="v1fNZO51GPil4yL1GlYa-114">
                    <mxCell style="html=1;overflow=block;blockSpacing=1;whiteSpace=wrap;;whiteSpace=wrap;fontSize=13;spacing=3.8;strokeOpacity=0;fillOpacity=0;rounded=1;absoluteArcSize=1;arcSize=9;strokeWidth=2.3;fillColor=#FAE5C7;strokeColor=#0F8B8D;fontColor=#143642;" parent="1" vertex="1">
                        <mxGeometry x="414" y="367" width="75" height="23" as="geometry"/>
                    </mxCell>
                </UserObject>
                <UserObject label="" lucidchartObjectId="lo~tykg3V_NQ" id="v1fNZO51GPil4yL1GlYa-120">
                    <mxCell style="html=1;jettySize=18;whiteSpace=wrap;fontSize=13;strokeWidth=1.5;rounded=1;arcSize=12;edgeStyle=orthogonalEdgeStyle;startArrow=none;;endArrow=none;;entryX=0.5;entryY=0;entryDx=0;entryDy=0;strokeColor=#A8201A;fontColor=#143642;labelBackgroundColor=#DAD2D8;" parent="1" source="v1fNZO51GPil4yL1GlYa-106" target="v1fNZO51GPil4yL1GlYa-109" edge="1">
                        <mxGeometry width="100" height="100" relative="1" as="geometry">
                            <Array as="points">
                                <mxPoint x="468" y="490"/>
                                <mxPoint x="468" y="510"/>
                                <mxPoint x="487" y="510"/>
                            </Array>
                            <mxPoint x="523.712" y="510.038" as="sourcePoint"/>
                            <mxPoint x="488" y="530" as="targetPoint"/>
                        </mxGeometry>
                    </mxCell>
                </UserObject>
                <UserObject label="" lucidchartObjectId="Wk~tcFr8fC1q" id="v1fNZO51GPil4yL1GlYa-130">
                    <mxCell style="html=1;jettySize=18;whiteSpace=wrap;fontSize=13;strokeWidth=1.5;rounded=1;arcSize=12;edgeStyle=orthogonalEdgeStyle;startArrow=none;;endArrow=none;;entryX=0.5;entryY=1;entryDx=0;entryDy=0;strokeColor=#A8201A;fontColor=#143642;labelBackgroundColor=#DAD2D8;" parent="1" target="v1fNZO51GPil4yL1GlYa-113" edge="1">
                        <mxGeometry width="100" height="100" relative="1" as="geometry">
                            <Array as="points"/>
                            <mxPoint x="484" y="404" as="sourcePoint"/>
                            <mxPoint x="470.18800000000005" y="429.5" as="targetPoint"/>
                        </mxGeometry>
                    </mxCell>
                </UserObject>
                <UserObject label="Atributo" lucidchartObjectId="Zk~tZb-w3sKj" id="v1fNZO51GPil4yL1GlYa-131">
                    <mxCell style="html=1;overflow=block;blockSpacing=1;whiteSpace=wrap;ellipse;whiteSpace=wrap;fontSize=13;spacing=3.8;strokeOpacity=100;rounded=1;absoluteArcSize=1;arcSize=9;strokeWidth=2.3;noLabel=1;fillColor=#FAE5C7;strokeColor=#0F8B8D;fontColor=#143642;" parent="1" vertex="1">
                        <mxGeometry x="755.5" y="84" width="11" height="10.5" as="geometry"/>
                    </mxCell>
                </UserObject>
                <UserObject label="Atributo" lucidchartObjectId="yl~t46uTt_mv" id="v1fNZO51GPil4yL1GlYa-132">
                    <mxCell style="html=1;overflow=block;blockSpacing=1;whiteSpace=wrap;ellipse;whiteSpace=wrap;fontSize=13;spacing=3.8;strokeOpacity=100;rounded=1;absoluteArcSize=1;arcSize=9;strokeWidth=2.3;noLabel=1;direction=south;fillColor=#FAE5C7;strokeColor=#0F8B8D;fontColor=#143642;" parent="1" vertex="1">
                        <mxGeometry x="677" y="73" width="11" height="11" as="geometry"/>
                    </mxCell>
                </UserObject>
                <UserObject label="País" lucidchartObjectId="Ul~tUlK2QmgD" id="v1fNZO51GPil4yL1GlYa-133">
                    <mxCell style="html=1;overflow=block;blockSpacing=1;whiteSpace=wrap;;whiteSpace=wrap;fontSize=13;spacing=3.8;strokeOpacity=0;fillOpacity=0;rounded=1;absoluteArcSize=1;arcSize=9;strokeWidth=2.3;fillColor=#FAE5C7;strokeColor=#0F8B8D;fontColor=#143642;" parent="1" vertex="1">
                        <mxGeometry x="723.5" y="61" width="75" height="23" as="geometry"/>
                    </mxCell>
                </UserObject>
                <UserObject label="Pasaporte" lucidchartObjectId="Qm~t1oRtlUaR" id="v1fNZO51GPil4yL1GlYa-134">
                    <mxCell style="html=1;overflow=block;blockSpacing=1;whiteSpace=wrap;;whiteSpace=wrap;fontSize=13;spacing=3.8;strokeOpacity=0;fillOpacity=0;rounded=1;absoluteArcSize=1;arcSize=9;strokeWidth=2.3;fillColor=#FAE5C7;strokeColor=#0F8B8D;fontColor=#143642;" parent="1" vertex="1">
                        <mxGeometry x="645" y="50" width="75" height="23" as="geometry"/>
                    </mxCell>
                </UserObject>
                <UserObject label="" lucidchartObjectId="Wk~tcFr8fC1q" id="v1fNZO51GPil4yL1GlYa-139">
                    <mxCell style="html=1;jettySize=18;whiteSpace=wrap;fontSize=13;strokeWidth=1.5;rounded=1;arcSize=12;edgeStyle=orthogonalEdgeStyle;startArrow=none;;endArrow=none;;exitX=0.049;exitY=-0.002;exitDx=0;exitDy=0;exitPerimeter=0;strokeColor=#A8201A;fontColor=#143642;labelBackgroundColor=#DAD2D8;" parent="1" source="v1fNZO51GPil4yL1GlYa-59" edge="1">
                        <mxGeometry width="100" height="100" relative="1" as="geometry">
                            <Array as="points">
                                <mxPoint x="739" y="110"/>
                                <mxPoint x="707" y="110"/>
                                <mxPoint x="707" y="79"/>
                            </Array>
                            <mxPoint x="739" y="159" as="sourcePoint"/>
                            <mxPoint x="688" y="79" as="targetPoint"/>
                        </mxGeometry>
                    </mxCell>
                </UserObject>
                <UserObject label="" lucidchartObjectId="Wk~tcFr8fC1q" id="v1fNZO51GPil4yL1GlYa-143">
                    <mxCell style="html=1;jettySize=18;whiteSpace=wrap;fontSize=13;strokeWidth=1.5;rounded=1;arcSize=12;edgeStyle=orthogonalEdgeStyle;startArrow=none;;endArrow=none;;entryX=0.5;entryY=1;entryDx=0;entryDy=0;strokeColor=#A8201A;fontColor=#143642;labelBackgroundColor=#DAD2D8;" parent="1" target="v1fNZO51GPil4yL1GlYa-131" edge="1">
                        <mxGeometry width="100" height="100" relative="1" as="geometry">
                            <Array as="points">
                                <mxPoint x="761" y="141"/>
                            </Array>
                            <mxPoint x="761.2400000000001" y="158.5" as="sourcePoint"/>
                            <mxPoint x="760.74" y="140" as="targetPoint"/>
                        </mxGeometry>
                    </mxCell>
                </UserObject>
                <UserObject label="Atributo" lucidchartObjectId="Zk~tZb-w3sKj" id="v1fNZO51GPil4yL1GlYa-144">
                    <mxCell style="html=1;overflow=block;blockSpacing=1;whiteSpace=wrap;ellipse;whiteSpace=wrap;fontSize=13;spacing=3.8;strokeOpacity=100;rounded=1;absoluteArcSize=1;arcSize=9;strokeWidth=2.3;noLabel=1;fillColor=#FAE5C7;strokeColor=#0F8B8D;fontColor=#143642;" parent="1" vertex="1">
                        <mxGeometry x="792" y="119" width="11" height="10.5" as="geometry"/>
                    </mxCell>
                </UserObject>
                <UserObject label="" lucidchartObjectId="Wk~tcFr8fC1q" id="v1fNZO51GPil4yL1GlYa-145">
                    <mxCell style="html=1;jettySize=18;whiteSpace=wrap;fontSize=13;strokeWidth=1.5;rounded=1;arcSize=12;edgeStyle=orthogonalEdgeStyle;startArrow=none;;endArrow=none;;entryX=0.5;entryY=1;entryDx=0;entryDy=0;strokeColor=#A8201A;fontColor=#143642;labelBackgroundColor=#DAD2D8;" parent="1" target="v1fNZO51GPil4yL1GlYa-144" edge="1">
                        <mxGeometry width="100" height="100" relative="1" as="geometry">
                            <Array as="points">
                                <mxPoint x="798" y="140"/>
                                <mxPoint x="797" y="140"/>
                            </Array>
                            <mxPoint x="797.7500000000001" y="158" as="sourcePoint"/>
                            <mxPoint x="797.25" y="139.5" as="targetPoint"/>
                        </mxGeometry>
                    </mxCell>
                </UserObject>
                <UserObject label="Año_actividad" lucidchartObjectId="Ul~tUlK2QmgD" id="v1fNZO51GPil4yL1GlYa-146">
                    <mxCell style="html=1;overflow=block;blockSpacing=1;whiteSpace=wrap;;whiteSpace=wrap;fontSize=13;spacing=3.8;strokeOpacity=0;fillOpacity=0;rounded=1;absoluteArcSize=1;arcSize=9;strokeWidth=2.3;fillColor=#FAE5C7;strokeColor=#0F8B8D;fontColor=#143642;" parent="1" vertex="1">
                        <mxGeometry x="766.5" y="94.5" width="75" height="23" as="geometry"/>
                    </mxCell>
                </UserObject>
                <UserObject label="Atributo" lucidchartObjectId="yl~t46uTt_mv" id="v1fNZO51GPil4yL1GlYa-147">
                    <mxCell style="html=1;overflow=block;blockSpacing=1;whiteSpace=wrap;ellipse;whiteSpace=wrap;fontSize=13;spacing=3.8;strokeOpacity=100;rounded=1;absoluteArcSize=1;arcSize=9;strokeWidth=2.3;noLabel=1;fillColor=#FAE5C7;strokeColor=#0F8B8D;fontColor=#143642;" parent="1" vertex="1">
                        <mxGeometry x="666" y="129.5" width="11" height="10.5" as="geometry"/>
                    </mxCell>
                </UserObject>
                <UserObject label="Nacioalidad" lucidchartObjectId="Qm~t1oRtlUaR" id="v1fNZO51GPil4yL1GlYa-148">
                    <mxCell style="html=1;overflow=block;blockSpacing=1;whiteSpace=wrap;;whiteSpace=wrap;fontSize=13;spacing=3.8;strokeOpacity=0;fillOpacity=0;rounded=1;absoluteArcSize=1;arcSize=9;strokeWidth=2.3;rotation=0;fillColor=#FAE5C7;strokeColor=#0F8B8D;fontColor=#143642;" parent="1" vertex="1">
                        <mxGeometry x="628" y="106.5" width="75" height="23" as="geometry"/>
                    </mxCell>
                </UserObject>
                <UserObject label="" lucidchartObjectId="Wk~tcFr8fC1q" id="v1fNZO51GPil4yL1GlYa-154">
                    <mxCell style="html=1;jettySize=18;whiteSpace=wrap;fontSize=13;strokeWidth=1.5;rounded=1;arcSize=12;edgeStyle=orthogonalEdgeStyle;startArrow=none;;endArrow=none;;entryX=1;entryY=0.5;entryDx=0;entryDy=0;exitX=-0.004;exitY=0.072;exitDx=0;exitDy=0;exitPerimeter=0;strokeColor=#A8201A;fontColor=#143642;labelBackgroundColor=#DAD2D8;" parent="1" source="v1fNZO51GPil4yL1GlYa-59" target="v1fNZO51GPil4yL1GlYa-147" edge="1">
                        <mxGeometry width="100" height="100" relative="1" as="geometry">
                            <Array as="points">
                                <mxPoint x="703" y="165"/>
                                <mxPoint x="703" y="135"/>
                            </Array>
                            <mxPoint x="703.5" y="168.5" as="sourcePoint"/>
                            <mxPoint x="703" y="149.99999999999994" as="targetPoint"/>
                        </mxGeometry>
                    </mxCell>
                </UserObject>
                <UserObject label="Atributo" lucidchartObjectId="Zk~tZb-w3sKj" id="v1fNZO51GPil4yL1GlYa-156">
                    <mxCell style="html=1;overflow=block;blockSpacing=1;whiteSpace=wrap;ellipse;whiteSpace=wrap;fontSize=13;spacing=3.8;strokeOpacity=100;rounded=1;absoluteArcSize=1;arcSize=9;strokeWidth=2.3;noLabel=1;fillColor=#FAE5C7;strokeColor=#0F8B8D;fontColor=#143642;" parent="1" vertex="1">
                        <mxGeometry x="898" y="100.75" width="11" height="10.5" as="geometry"/>
                    </mxCell>
                </UserObject>
                <UserObject label="" lucidchartObjectId="Wk~tcFr8fC1q" id="v1fNZO51GPil4yL1GlYa-157">
                    <mxCell style="html=1;jettySize=18;whiteSpace=wrap;fontSize=13;strokeWidth=1.5;rounded=1;arcSize=12;edgeStyle=orthogonalEdgeStyle;startArrow=none;;endArrow=none;;entryX=0;entryY=0.5;entryDx=0;entryDy=0;strokeColor=#A8201A;fontColor=#143642;labelBackgroundColor=#DAD2D8;" parent="1" target="v1fNZO51GPil4yL1GlYa-156" edge="1">
                        <mxGeometry width="100" height="100" relative="1" as="geometry">
                            <Array as="points">
                                <mxPoint x="828" y="140"/>
                                <mxPoint x="868" y="140"/>
                                <mxPoint x="868" y="105"/>
                                <mxPoint x="898" y="105"/>
                            </Array>
                            <mxPoint x="828.25" y="158" as="sourcePoint"/>
                            <mxPoint x="827.9999999999998" y="129.4999999999999" as="targetPoint"/>
                        </mxGeometry>
                    </mxCell>
                </UserObject>
                <UserObject label="Nom_Apellidos" lucidchartObjectId="Ul~tUlK2QmgD" id="v1fNZO51GPil4yL1GlYa-159">
                    <mxCell style="html=1;overflow=block;blockSpacing=1;whiteSpace=wrap;;whiteSpace=wrap;fontSize=13;spacing=3.8;strokeOpacity=0;fillOpacity=0;rounded=1;absoluteArcSize=1;arcSize=9;strokeWidth=2.3;fillColor=#FAE5C7;strokeColor=#0F8B8D;fontColor=#143642;" parent="1" vertex="1">
                        <mxGeometry x="913" y="94.5" width="75" height="23" as="geometry"/>
                    </mxCell>
                </UserObject>
                <UserObject label="Atributo" lucidchartObjectId="Zk~tZb-w3sKj" id="v1fNZO51GPil4yL1GlYa-160">
                    <mxCell style="html=1;overflow=block;blockSpacing=1;whiteSpace=wrap;ellipse;whiteSpace=wrap;fontSize=13;spacing=3.8;strokeOpacity=100;rounded=1;absoluteArcSize=1;arcSize=9;strokeWidth=2.3;noLabel=1;fillColor=#FAE5C7;strokeColor=#0F8B8D;fontColor=#143642;" parent="1" vertex="1">
                        <mxGeometry x="1067" y="124.5" width="11" height="10.5" as="geometry"/>
                    </mxCell>
                </UserObject>
                <UserObject label="" lucidchartObjectId="Wk~tcFr8fC1q" id="v1fNZO51GPil4yL1GlYa-161">
                    <mxCell style="html=1;jettySize=18;whiteSpace=wrap;fontSize=13;strokeWidth=1.5;rounded=1;arcSize=12;edgeStyle=orthogonalEdgeStyle;startArrow=none;;endArrow=none;;entryX=0.5;entryY=1;entryDx=0;entryDy=0;exitX=0.76;exitY=0.25;exitDx=0;exitDy=0;exitPerimeter=0;strokeColor=#A8201A;fontColor=#143642;labelBackgroundColor=#DAD2D8;" parent="1" source="v1fNZO51GPil4yL1GlYa-60" target="v1fNZO51GPil4yL1GlYa-160" edge="1">
                        <mxGeometry width="100" height="100" relative="1" as="geometry">
                            <Array as="points">
                                <mxPoint x="1052" y="176"/>
                                <mxPoint x="1052" y="158"/>
                            </Array>
                            <mxPoint x="1052.25" y="186.5" as="sourcePoint"/>
                            <mxPoint x="1052" y="158" as="targetPoint"/>
                        </mxGeometry>
                    </mxCell>
                </UserObject>
                <UserObject label="" lucidchartObjectId="Ul~tUlK2QmgD" id="v1fNZO51GPil4yL1GlYa-162">
                    <mxCell style="html=1;overflow=block;blockSpacing=1;whiteSpace=wrap;;whiteSpace=wrap;fontSize=13;spacing=3.8;strokeOpacity=0;fillOpacity=0;rounded=1;absoluteArcSize=1;arcSize=9;strokeWidth=2.3;fillColor=#FAE5C7;strokeColor=#0F8B8D;fontColor=#143642;" parent="1" vertex="1">
                        <mxGeometry x="1035" y="97" width="75" height="23" as="geometry"/>
                    </mxCell>
                </UserObject>
                <UserObject label="Dolencia" lucidchartObjectId="Ul~tUlK2QmgD" id="v1fNZO51GPil4yL1GlYa-163">
                    <mxCell style="html=1;overflow=block;blockSpacing=1;whiteSpace=wrap;;whiteSpace=wrap;fontSize=13;spacing=3.8;strokeOpacity=0;fillOpacity=0;rounded=1;absoluteArcSize=1;arcSize=9;strokeWidth=2.3;fillColor=#FAE5C7;strokeColor=#0F8B8D;fontColor=#143642;" parent="1" vertex="1">
                        <mxGeometry x="1035" y="100.75" width="75" height="23" as="geometry"/>
                    </mxCell>
                </UserObject>
                <UserObject label="Atributo" lucidchartObjectId="Zk~tZb-w3sKj" id="v1fNZO51GPil4yL1GlYa-167">
                    <mxCell style="html=1;overflow=block;blockSpacing=1;whiteSpace=wrap;ellipse;whiteSpace=wrap;fontSize=13;spacing=3.8;strokeOpacity=100;rounded=1;absoluteArcSize=1;arcSize=9;strokeWidth=2.3;noLabel=1;fillColor=#0F8B8D;strokeColor=#0F8B8D;fontColor=#143642;" parent="1" vertex="1">
                        <mxGeometry x="842" y="356.5" width="11" height="10.5" as="geometry"/>
                    </mxCell>
                </UserObject>
                <UserObject label="" lucidchartObjectId="Wk~tcFr8fC1q" id="v1fNZO51GPil4yL1GlYa-168">
                    <mxCell style="html=1;jettySize=18;whiteSpace=wrap;fontSize=13;strokeWidth=1.5;rounded=1;arcSize=12;edgeStyle=orthogonalEdgeStyle;startArrow=none;;endArrow=none;;entryX=0.5;entryY=1;entryDx=0;entryDy=0;exitX=0.08;exitY=0.005;exitDx=0;exitDy=0;exitPerimeter=0;strokeColor=#A8201A;fontColor=#143642;labelBackgroundColor=#DAD2D8;" parent="1" source="v1fNZO51GPil4yL1GlYa-57" target="v1fNZO51GPil4yL1GlYa-167" edge="1">
                        <mxGeometry width="100" height="100" relative="1" as="geometry">
                            <Array as="points">
                                <mxPoint x="908" y="398"/>
                                <mxPoint x="908" y="380"/>
                                <mxPoint x="848" y="380"/>
                            </Array>
                            <mxPoint x="912.1999999999998" y="397.9999999999999" as="sourcePoint"/>
                            <mxPoint x="915" y="379.75" as="targetPoint"/>
                        </mxGeometry>
                    </mxCell>
                </UserObject>
                <UserObject label="" lucidchartObjectId="Ul~tUlK2QmgD" id="v1fNZO51GPil4yL1GlYa-169">
                    <mxCell style="html=1;overflow=block;blockSpacing=1;whiteSpace=wrap;;whiteSpace=wrap;fontSize=13;spacing=3.8;strokeOpacity=0;fillOpacity=0;rounded=1;absoluteArcSize=1;arcSize=9;strokeWidth=2.3;fillColor=#FAE5C7;strokeColor=#0F8B8D;fontColor=#143642;" parent="1" vertex="1">
                        <mxGeometry x="898" y="318.75" width="75" height="23" as="geometry"/>
                    </mxCell>
                </UserObject>
                <UserObject label="Nom_Seleccion" lucidchartObjectId="Ul~tUlK2QmgD" id="v1fNZO51GPil4yL1GlYa-170">
                    <mxCell style="html=1;overflow=block;blockSpacing=1;whiteSpace=wrap;;whiteSpace=wrap;fontSize=13;spacing=3.8;strokeOpacity=0;fillOpacity=0;rounded=1;absoluteArcSize=1;arcSize=9;strokeWidth=2.3;fillColor=#FAE5C7;strokeColor=#0F8B8D;fontColor=#143642;" parent="1" vertex="1">
                        <mxGeometry x="810" y="333.5" width="75" height="23" as="geometry"/>
                    </mxCell>
                </UserObject>
                <UserObject label="" lucidchartObjectId="Wk~tcFr8fC1q" id="v1fNZO51GPil4yL1GlYa-173">
                    <mxCell style="html=1;jettySize=18;whiteSpace=wrap;fontSize=13;strokeWidth=1.5;rounded=1;arcSize=12;edgeStyle=orthogonalEdgeStyle;startArrow=none;;endArrow=none;;exitX=0.341;exitY=-0.007;exitDx=0;exitDy=0;exitPerimeter=0;entryX=0.5;entryY=1;entryDx=0;entryDy=0;strokeColor=#A8201A;fontColor=#143642;labelBackgroundColor=#DAD2D8;" parent="1" source="v1fNZO51GPil4yL1GlYa-57" target="v1fNZO51GPil4yL1GlYa-174" edge="1">
                        <mxGeometry width="100" height="100" relative="1" as="geometry">
                            <Array as="points">
                                <mxPoint x="939" y="399"/>
                                <mxPoint x="939" y="368"/>
                                <mxPoint x="918" y="368"/>
                            </Array>
                            <mxPoint x="933.3500000000001" y="406.45000000000005" as="sourcePoint"/>
                            <mxPoint x="934" y="360" as="targetPoint"/>
                        </mxGeometry>
                    </mxCell>
                </UserObject>
                <UserObject label="Atributo" lucidchartObjectId="Zk~tZb-w3sKj" id="v1fNZO51GPil4yL1GlYa-174">
                    <mxCell style="html=1;overflow=block;blockSpacing=1;whiteSpace=wrap;ellipse;whiteSpace=wrap;fontSize=13;spacing=3.8;strokeOpacity=100;rounded=1;absoluteArcSize=1;arcSize=9;strokeWidth=2.3;noLabel=1;fillColor=#FAE5C7;strokeColor=#0F8B8D;fontColor=#143642;" parent="1" vertex="1">
                        <mxGeometry x="913" y="323" width="11" height="10.5" as="geometry"/>
                    </mxCell>
                </UserObject>
                <UserObject label="&lt;font style=&quot;vertical-align: inherit&quot;&gt;&lt;font style=&quot;vertical-align: inherit&quot;&gt;Capitan&lt;/font&gt;&lt;/font&gt;" lucidchartObjectId="Ul~tUlK2QmgD" id="v1fNZO51GPil4yL1GlYa-176">
                    <mxCell style="html=1;overflow=block;blockSpacing=1;whiteSpace=wrap;;whiteSpace=wrap;fontSize=13;spacing=3.8;strokeOpacity=0;fillOpacity=0;rounded=1;absoluteArcSize=1;arcSize=9;strokeWidth=2.3;fillColor=#FAE5C7;strokeColor=#0F8B8D;fontColor=#143642;" parent="1" vertex="1">
                        <mxGeometry x="883" y="300" width="75" height="23" as="geometry"/>
                    </mxCell>
                </UserObject>
                <UserObject label="&lt;font style=&quot;vertical-align: inherit&quot;&gt;&lt;font style=&quot;vertical-align: inherit&quot;&gt;Cuerpo_tecnico&lt;/font&gt;&lt;/font&gt;" lucidchartObjectId="Ul~tUlK2QmgD" id="azxdWyeYkW4kS3EPx_k4-5">
                    <mxCell style="html=1;overflow=block;blockSpacing=1;whiteSpace=wrap;;whiteSpace=wrap;fontSize=13;spacing=3.8;strokeOpacity=0;fillOpacity=0;rounded=1;absoluteArcSize=1;arcSize=9;strokeWidth=2.3;fillColor=#FAE5C7;strokeColor=#0F8B8D;fontColor=#143642;" parent="1" vertex="1">
                        <mxGeometry x="935.5" y="318.75" width="75" height="23" as="geometry"/>
                    </mxCell>
                </UserObject>
                <UserObject label="Atributo" lucidchartObjectId="Zk~tZb-w3sKj" id="azxdWyeYkW4kS3EPx_k4-6">
                    <mxCell style="html=1;overflow=block;blockSpacing=1;whiteSpace=wrap;ellipse;whiteSpace=wrap;fontSize=13;spacing=3.8;strokeOpacity=100;rounded=1;absoluteArcSize=1;arcSize=9;strokeWidth=2.3;noLabel=1;fillColor=#FAE5C7;strokeColor=#0F8B8D;fontColor=#143642;" parent="1" vertex="1">
                        <mxGeometry x="1063" y="335.5" width="11" height="10.5" as="geometry"/>
                    </mxCell>
                </UserObject>
                <UserObject label="&lt;font style=&quot;vertical-align: inherit&quot;&gt;&lt;font style=&quot;vertical-align: inherit&quot;&gt;&lt;font style=&quot;vertical-align: inherit&quot;&gt;&lt;font style=&quot;vertical-align: inherit&quot;&gt;Lugar_entreno&lt;/font&gt;&lt;/font&gt;&lt;/font&gt;&lt;/font&gt;" lucidchartObjectId="Ul~tUlK2QmgD" id="azxdWyeYkW4kS3EPx_k4-7">
                    <mxCell style="html=1;overflow=block;blockSpacing=1;whiteSpace=wrap;;whiteSpace=wrap;fontSize=13;spacing=3.8;strokeOpacity=0;fillOpacity=0;rounded=1;absoluteArcSize=1;arcSize=9;strokeWidth=2.3;fillColor=#FAE5C7;strokeColor=#0F8B8D;fontColor=#143642;" parent="1" vertex="1">
                        <mxGeometry x="1031" y="312.5" width="75" height="23" as="geometry"/>
                    </mxCell>
                </UserObject>
                <UserObject label="" lucidchartObjectId="Wk~tcFr8fC1q" id="azxdWyeYkW4kS3EPx_k4-9">
                    <mxCell style="html=1;jettySize=18;whiteSpace=wrap;fontSize=13;strokeWidth=1.5;rounded=1;arcSize=12;edgeStyle=orthogonalEdgeStyle;startArrow=none;;endArrow=none;;exitX=0.967;exitY=0.012;exitDx=0;exitDy=0;exitPerimeter=0;entryX=0.5;entryY=1;entryDx=0;entryDy=0;strokeColor=#A8201A;fontColor=#143642;labelBackgroundColor=#DAD2D8;" parent="1" source="v1fNZO51GPil4yL1GlYa-57" target="azxdWyeYkW4kS3EPx_k4-6" edge="1">
                        <mxGeometry width="100" height="100" relative="1" as="geometry">
                            <Array as="points">
                                <mxPoint x="1014" y="390"/>
                                <mxPoint x="1069" y="390"/>
                            </Array>
                            <mxPoint x="958.0000000000001" y="405.00000000000006" as="sourcePoint"/>
                            <mxPoint x="958.1500000000001" y="355.05" as="targetPoint"/>
                        </mxGeometry>
                    </mxCell>
                </UserObject>
                <UserObject label="" lucidchartObjectId="Wk~tcFr8fC1q" id="azxdWyeYkW4kS3EPx_k4-11">
                    <mxCell style="html=1;jettySize=18;whiteSpace=wrap;fontSize=13;strokeWidth=1.5;rounded=1;arcSize=12;edgeStyle=orthogonalEdgeStyle;startArrow=none;;endArrow=none;;entryX=0.5;entryY=1;entryDx=0;entryDy=0;strokeColor=#A8201A;fontColor=#143642;labelBackgroundColor=#DAD2D8;" parent="1" target="azxdWyeYkW4kS3EPx_k4-12" edge="1">
                        <mxGeometry width="100" height="100" relative="1" as="geometry">
                            <Array as="points">
                                <mxPoint x="983" y="405"/>
                                <mxPoint x="983" y="378"/>
                                <mxPoint x="983" y="378"/>
                            </Array>
                            <mxPoint x="983" y="405" as="sourcePoint"/>
                            <mxPoint x="944" y="370" as="targetPoint"/>
                        </mxGeometry>
                    </mxCell>
                </UserObject>
                <UserObject label="Atributo" lucidchartObjectId="Zk~tZb-w3sKj" id="azxdWyeYkW4kS3EPx_k4-12">
                    <mxCell style="html=1;overflow=block;blockSpacing=1;whiteSpace=wrap;ellipse;whiteSpace=wrap;fontSize=13;spacing=3.8;strokeOpacity=100;rounded=1;absoluteArcSize=1;arcSize=9;strokeWidth=2.3;noLabel=1;fillColor=#FAE5C7;strokeColor=#0F8B8D;fontColor=#143642;" parent="1" vertex="1">
                        <mxGeometry x="977" y="341.75" width="11" height="10.5" as="geometry"/>
                    </mxCell>
                </UserObject>
                <UserObject label="" lucidchartObjectId="Wk~tcFr8fC1q" id="azxdWyeYkW4kS3EPx_k4-14">
                    <mxCell style="html=1;jettySize=18;whiteSpace=wrap;fontSize=13;strokeWidth=1.5;rounded=1;arcSize=12;edgeStyle=orthogonalEdgeStyle;startArrow=none;;endArrow=none;;exitX=1.005;exitY=0.03;exitDx=0;exitDy=0;exitPerimeter=0;entryX=0.5;entryY=1;entryDx=0;entryDy=0;strokeColor=#A8201A;fontColor=#143642;labelBackgroundColor=#DAD2D8;" parent="1" source="v1fNZO51GPil4yL1GlYa-90" target="azxdWyeYkW4kS3EPx_k4-15" edge="1">
                        <mxGeometry width="100" height="100" relative="1" as="geometry">
                            <Array as="points">
                                <mxPoint x="1028" y="708"/>
                                <mxPoint x="1091" y="708"/>
                            </Array>
                            <mxPoint x="1079.3500000000001" y="750.45" as="sourcePoint"/>
                            <mxPoint x="1080" y="704" as="targetPoint"/>
                        </mxGeometry>
                    </mxCell>
                </UserObject>
                <UserObject label="Atributo" lucidchartObjectId="Zk~tZb-w3sKj" id="azxdWyeYkW4kS3EPx_k4-15">
                    <mxCell style="html=1;overflow=block;blockSpacing=1;whiteSpace=wrap;ellipse;whiteSpace=wrap;fontSize=13;spacing=3.8;strokeOpacity=100;rounded=1;absoluteArcSize=1;arcSize=9;strokeWidth=2.3;noLabel=1;fillColor=#0F8B8D;strokeColor=#0F8B8D;fontColor=#143642;" parent="1" vertex="1">
                        <mxGeometry x="1085.5" y="684.75" width="11" height="10.5" as="geometry"/>
                    </mxCell>
                </UserObject>
                <UserObject label="&lt;font style=&quot;vertical-align: inherit&quot;&gt;&lt;font style=&quot;vertical-align: inherit&quot;&gt;Dorsal&lt;/font&gt;&lt;/font&gt;" lucidchartObjectId="Ul~tUlK2QmgD" id="azxdWyeYkW4kS3EPx_k4-16">
                    <mxCell style="html=1;overflow=block;blockSpacing=1;whiteSpace=wrap;;whiteSpace=wrap;fontSize=13;spacing=3.8;strokeOpacity=0;fillOpacity=0;rounded=1;absoluteArcSize=1;arcSize=9;strokeWidth=2.3;fillColor=#FAE5C7;strokeColor=#0F8B8D;fontColor=#143642;" parent="1" vertex="1">
                        <mxGeometry x="1053.5" y="661.75" width="75" height="23" as="geometry"/>
                    </mxCell>
                </UserObject>
                <UserObject label="" lucidchartObjectId="Wk~tcFr8fC1q" id="azxdWyeYkW4kS3EPx_k4-19">
                    <mxCell style="html=1;jettySize=18;whiteSpace=wrap;fontSize=13;strokeWidth=1.5;rounded=1;arcSize=12;edgeStyle=orthogonalEdgeStyle;startArrow=none;;endArrow=none;;entryX=0.5;entryY=0;entryDx=0;entryDy=0;strokeColor=#A8201A;fontColor=#143642;labelBackgroundColor=#DAD2D8;" parent="1" target="azxdWyeYkW4kS3EPx_k4-20" edge="1">
                        <mxGeometry width="100" height="100" relative="1" as="geometry">
                            <Array as="points">
                                <mxPoint x="958" y="520"/>
                                <mxPoint x="1058" y="520"/>
                                <mxPoint x="1058" y="720"/>
                            </Array>
                            <mxPoint x="958" y="520" as="sourcePoint"/>
                            <mxPoint x="1054" y="720" as="targetPoint"/>
                        </mxGeometry>
                    </mxCell>
                </UserObject>
                <UserObject label="Atributo" lucidchartObjectId="Zk~tZb-w3sKj" id="azxdWyeYkW4kS3EPx_k4-20">
                    <mxCell style="html=1;overflow=block;blockSpacing=1;whiteSpace=wrap;ellipse;whiteSpace=wrap;fontSize=13;spacing=3.8;strokeOpacity=100;rounded=1;absoluteArcSize=1;arcSize=9;strokeWidth=2.3;noLabel=1;fillColor=#0F8B8D;strokeColor=#0F8B8D;fontColor=#143642;" parent="1" vertex="1">
                        <mxGeometry x="1052" y="720" width="11" height="10.5" as="geometry"/>
                    </mxCell>
                </UserObject>
                <UserObject label="Nom_Seleccion" lucidchartObjectId="Ul~tUlK2QmgD" id="azxdWyeYkW4kS3EPx_k4-21">
                    <mxCell style="html=1;overflow=block;blockSpacing=1;whiteSpace=wrap;;whiteSpace=wrap;fontSize=13;spacing=3.8;strokeOpacity=0;fillOpacity=0;rounded=1;absoluteArcSize=1;arcSize=9;strokeWidth=2.3;fillColor=#FAE5C7;strokeColor=#0F8B8D;fontColor=#143642;" parent="1" vertex="1">
                        <mxGeometry x="1067" y="713.75" width="75" height="23" as="geometry"/>
                    </mxCell>
                </UserObject>
                <UserObject label="" lucidchartObjectId="Wk~tcFr8fC1q" id="azxdWyeYkW4kS3EPx_k4-25">
                    <mxCell style="html=1;jettySize=18;whiteSpace=wrap;fontSize=13;strokeWidth=1.5;rounded=1;arcSize=12;edgeStyle=orthogonalEdgeStyle;startArrow=none;;endArrow=none;;entryX=0;entryY=0.5;entryDx=0;entryDy=0;strokeColor=#A8201A;fontColor=#143642;labelBackgroundColor=#DAD2D8;" parent="1" target="azxdWyeYkW4kS3EPx_k4-26" edge="1">
                        <mxGeometry width="100" height="100" relative="1" as="geometry">
                            <Array as="points">
                                <mxPoint x="1018" y="750"/>
                            </Array>
                            <mxPoint x="1018" y="750" as="sourcePoint"/>
                            <mxPoint x="928.5" y="679.5" as="targetPoint"/>
                        </mxGeometry>
                    </mxCell>
                </UserObject>
                <UserObject label="Atributo" lucidchartObjectId="Zk~tZb-w3sKj" id="azxdWyeYkW4kS3EPx_k4-26">
                    <mxCell style="html=1;overflow=block;blockSpacing=1;whiteSpace=wrap;ellipse;whiteSpace=wrap;fontSize=13;spacing=3.8;strokeOpacity=100;rounded=1;absoluteArcSize=1;arcSize=9;strokeWidth=2.3;noLabel=1;fillColor=#FAE5C7;strokeColor=#0F8B8D;fontColor=#143642;" parent="1" vertex="1">
                        <mxGeometry x="1074.5" y="744.75" width="11" height="10.5" as="geometry"/>
                    </mxCell>
                </UserObject>
                <UserObject label="" lucidchartObjectId="Wk~tcFr8fC1q" id="azxdWyeYkW4kS3EPx_k4-27">
                    <mxCell style="html=1;jettySize=18;whiteSpace=wrap;fontSize=13;strokeWidth=1.5;rounded=1;arcSize=12;edgeStyle=orthogonalEdgeStyle;startArrow=none;;endArrow=none;;entryX=0;entryY=0.5;entryDx=0;entryDy=0;exitX=0.997;exitY=0.44;exitDx=0;exitDy=0;exitPerimeter=0;strokeColor=#A8201A;fontColor=#143642;labelBackgroundColor=#DAD2D8;" parent="1" target="azxdWyeYkW4kS3EPx_k4-28" edge="1">
                        <mxGeometry width="100" height="100" relative="1" as="geometry">
                            <Array as="points"/>
                            <mxPoint x="1017.6399999999999" y="774.6000000000001" as="sourcePoint"/>
                            <mxPoint x="928.5" y="709.5" as="targetPoint"/>
                        </mxGeometry>
                    </mxCell>
                </UserObject>
                <UserObject label="Atributo" lucidchartObjectId="Zk~tZb-w3sKj" id="azxdWyeYkW4kS3EPx_k4-28">
                    <mxCell style="html=1;overflow=block;blockSpacing=1;whiteSpace=wrap;ellipse;whiteSpace=wrap;fontSize=13;spacing=3.8;strokeOpacity=100;rounded=1;absoluteArcSize=1;arcSize=9;strokeWidth=2.3;noLabel=1;fillColor=#FAE5C7;strokeColor=#0F8B8D;fontColor=#143642;" parent="1" vertex="1">
                        <mxGeometry x="1074.5" y="770" width="11" height="10.5" as="geometry"/>
                    </mxCell>
                </UserObject>
                <UserObject label="&lt;font style=&quot;vertical-align: inherit&quot;&gt;&lt;font style=&quot;vertical-align: inherit&quot;&gt;Posicion&lt;/font&gt;&lt;/font&gt;" lucidchartObjectId="Ul~tUlK2QmgD" id="azxdWyeYkW4kS3EPx_k4-29">
                    <mxCell style="html=1;overflow=block;blockSpacing=1;whiteSpace=wrap;;whiteSpace=wrap;fontSize=13;spacing=3.8;strokeOpacity=0;fillOpacity=0;rounded=1;absoluteArcSize=1;arcSize=9;strokeWidth=2.3;fillColor=#FAE5C7;strokeColor=#0F8B8D;fontColor=#143642;" parent="1" vertex="1">
                        <mxGeometry x="1078" y="738.5" width="75" height="23" as="geometry"/>
                    </mxCell>
                </UserObject>
                <UserObject label="&lt;font style=&quot;vertical-align: inherit&quot;&gt;&lt;font style=&quot;vertical-align: inherit&quot;&gt;&lt;font style=&quot;vertical-align: inherit&quot;&gt;&lt;font style=&quot;vertical-align: inherit&quot;&gt;Nom_Apellidos&lt;/font&gt;&lt;/font&gt;&lt;/font&gt;&lt;/font&gt;" lucidchartObjectId="Ul~tUlK2QmgD" id="azxdWyeYkW4kS3EPx_k4-30">
                    <mxCell style="html=1;overflow=block;blockSpacing=1;whiteSpace=wrap;;whiteSpace=wrap;fontSize=13;spacing=3.8;strokeOpacity=0;fillOpacity=0;rounded=1;absoluteArcSize=1;arcSize=9;strokeWidth=2.3;fillColor=#FAE5C7;strokeColor=#0F8B8D;fontColor=#143642;" parent="1" vertex="1">
                        <mxGeometry x="1085.5" y="763.75" width="75" height="23" as="geometry"/>
                    </mxCell>
                </UserObject>
                <UserObject label="" lucidchartObjectId="Wk~tcFr8fC1q" id="azxdWyeYkW4kS3EPx_k4-33">
                    <mxCell style="html=1;jettySize=18;whiteSpace=wrap;fontSize=13;strokeWidth=1.5;rounded=1;arcSize=12;edgeStyle=orthogonalEdgeStyle;startArrow=none;;endArrow=none;;entryX=0;entryY=0.5;entryDx=0;entryDy=0;exitX=1.003;exitY=0.893;exitDx=0;exitDy=0;exitPerimeter=0;strokeColor=#A8201A;fontColor=#143642;labelBackgroundColor=#DAD2D8;" parent="1" source="v1fNZO51GPil4yL1GlYa-90" target="azxdWyeYkW4kS3EPx_k4-34" edge="1">
                        <mxGeometry width="100" height="100" relative="1" as="geometry">
                            <Array as="points"/>
                            <mxPoint x="1017.9999999999999" y="805.8500000000001" as="sourcePoint"/>
                            <mxPoint x="928.86" y="740.75" as="targetPoint"/>
                        </mxGeometry>
                    </mxCell>
                </UserObject>
                <UserObject label="Atributo" lucidchartObjectId="Zk~tZb-w3sKj" id="azxdWyeYkW4kS3EPx_k4-34">
                    <mxCell style="html=1;overflow=block;blockSpacing=1;whiteSpace=wrap;ellipse;whiteSpace=wrap;fontSize=13;spacing=3.8;strokeOpacity=100;rounded=1;absoluteArcSize=1;arcSize=9;strokeWidth=2.3;noLabel=1;fillColor=#FAE5C7;strokeColor=#0F8B8D;fontColor=#143642;" parent="1" vertex="1">
                        <mxGeometry x="1074.8600000000001" y="801.25" width="11" height="10.5" as="geometry"/>
                    </mxCell>
                </UserObject>
                <UserObject label="&lt;font style=&quot;vertical-align: inherit&quot;&gt;&lt;font style=&quot;vertical-align: inherit&quot;&gt;&lt;font style=&quot;vertical-align: inherit&quot;&gt;&lt;font style=&quot;vertical-align: inherit&quot;&gt;&lt;font style=&quot;vertical-align: inherit&quot;&gt;&lt;font style=&quot;vertical-align: inherit&quot;&gt;Apodo&lt;/font&gt;&lt;/font&gt;&lt;/font&gt;&lt;/font&gt;&lt;/font&gt;&lt;/font&gt;" lucidchartObjectId="Ul~tUlK2QmgD" id="azxdWyeYkW4kS3EPx_k4-35">
                    <mxCell style="html=1;overflow=block;blockSpacing=1;whiteSpace=wrap;;whiteSpace=wrap;fontSize=13;spacing=3.8;strokeOpacity=0;fillOpacity=0;rounded=1;absoluteArcSize=1;arcSize=9;strokeWidth=2.3;fillColor=#FAE5C7;strokeColor=#0F8B8D;fontColor=#143642;" parent="1" vertex="1">
                        <mxGeometry x="1074" y="795" width="75" height="23" as="geometry"/>
                    </mxCell>
                </UserObject>
                <UserObject label="" lucidchartObjectId="VKhutabg3GAx" id="azxdWyeYkW4kS3EPx_k4-39">
                    <mxCell style="html=1;overflow=block;blockSpacing=1;whiteSpace=wrap;triangle;direction=south;anchorPointDirection=0;whiteSpace=wrap;fontSize=13;spacing=3.8;strokeOpacity=100;rounded=1;absoluteArcSize=1;arcSize=9;strokeWidth=2.3;fillColor=#FAE5C7;strokeColor=#0F8B8D;fontColor=#143642;" parent="1" vertex="1">
                        <mxGeometry x="906.75" y="970" width="102.5" height="90" as="geometry"/>
                    </mxCell>
                </UserObject>
                <UserObject label="&lt;font style=&quot;vertical-align: inherit&quot;&gt;&lt;font style=&quot;vertical-align: inherit&quot;&gt;&lt;font style=&quot;vertical-align: inherit&quot;&gt;&lt;font style=&quot;vertical-align: inherit&quot;&gt;&lt;font style=&quot;vertical-align: inherit&quot;&gt;&lt;font style=&quot;vertical-align: inherit&quot;&gt;&lt;font style=&quot;vertical-align: inherit&quot;&gt;&lt;font style=&quot;vertical-align: inherit ; font-size: 14px&quot;&gt;Es&lt;/font&gt;&lt;/font&gt;&lt;/font&gt;&lt;/font&gt;&lt;/font&gt;&lt;/font&gt;&lt;/font&gt;&lt;/font&gt;" lucidchartObjectId="Ul~tUlK2QmgD" id="azxdWyeYkW4kS3EPx_k4-40">
                    <mxCell style="html=1;overflow=block;blockSpacing=1;whiteSpace=wrap;;whiteSpace=wrap;fontSize=13;spacing=3.8;strokeOpacity=0;fillOpacity=0;rounded=1;absoluteArcSize=1;arcSize=9;strokeWidth=2.3;fillColor=#FAE5C7;strokeColor=#0F8B8D;fontColor=#143642;" parent="1" vertex="1">
                        <mxGeometry x="920.5" y="990" width="75" height="23" as="geometry"/>
                    </mxCell>
                </UserObject>
                <UserObject label="" lucidchartObjectId="Cv1t0k_hdNng" id="azxdWyeYkW4kS3EPx_k4-41">
                    <mxCell style="html=1;jettySize=18;whiteSpace=wrap;fontSize=13;strokeWidth=1.5;rounded=1;arcSize=12;edgeStyle=orthogonalEdgeStyle;startArrow=none;;endArrow=none;;exitX=0.5;exitY=0;entryX=0.5;entryY=1;exitDx=0;exitDy=0;entryDx=0;entryDy=0;strokeColor=#A8201A;fontColor=#143642;labelBackgroundColor=#DAD2D8;" parent="1" source="azxdWyeYkW4kS3EPx_k4-47" target="v1fNZO51GPil4yL1GlYa-65" edge="1">
                        <mxGeometry width="100" height="100" relative="1" as="geometry">
                            <Array as="points"/>
                            <mxPoint x="832.1600000000001" y="895.5" as="sourcePoint"/>
                            <mxPoint x="906.9200000000001" y="895" as="targetPoint"/>
                        </mxGeometry>
                    </mxCell>
                </UserObject>
                <UserObject label="&lt;font style=&quot;vertical-align: inherit&quot;&gt;&lt;font style=&quot;vertical-align: inherit&quot;&gt;Local&lt;/font&gt;&lt;/font&gt;" lucidchartObjectId="cu1toX~Nml.E" id="azxdWyeYkW4kS3EPx_k4-42">
                    <mxCell style="html=1;overflow=block;blockSpacing=1;whiteSpace=wrap;;whiteSpace=wrap;fontSize=16.7;align=center;spacing=3.8;strokeOpacity=100;rounded=1;absoluteArcSize=1;arcSize=9;strokeWidth=2.3;fillColor=#FAE5C7;strokeColor=#0F8B8D;fontColor=#143642;" parent="1" vertex="1">
                        <mxGeometry x="800.5" y="1079" width="120" height="90" as="geometry"/>
                    </mxCell>
                </UserObject>
                <UserObject label="&lt;font style=&quot;vertical-align: inherit&quot;&gt;&lt;font style=&quot;vertical-align: inherit&quot;&gt;Visitante&lt;/font&gt;&lt;/font&gt;" lucidchartObjectId="cu1toX~Nml.E" id="azxdWyeYkW4kS3EPx_k4-43">
                    <mxCell style="html=1;overflow=block;blockSpacing=1;whiteSpace=wrap;;whiteSpace=wrap;fontSize=16.7;align=center;spacing=3.8;strokeOpacity=100;rounded=1;absoluteArcSize=1;arcSize=9;strokeWidth=2.3;fillColor=#FAE5C7;strokeColor=#0F8B8D;fontColor=#143642;" parent="1" vertex="1">
                        <mxGeometry x="997.5" y="1079" width="120" height="90" as="geometry"/>
                    </mxCell>
                </UserObject>
                <UserObject label="" lucidchartObjectId="Cv1t0k_hdNng" id="azxdWyeYkW4kS3EPx_k4-45">
                    <mxCell style="html=1;jettySize=18;whiteSpace=wrap;fontSize=13;strokeWidth=1.5;rounded=1;arcSize=12;edgeStyle=orthogonalEdgeStyle;startArrow=none;;endArrow=none;;entryX=0;entryY=0.5;entryDx=0;entryDy=0;strokeColor=#A8201A;fontColor=#143642;labelBackgroundColor=#DAD2D8;" parent="1" target="azxdWyeYkW4kS3EPx_k4-39" edge="1">
                        <mxGeometry width="100" height="100" relative="1" as="geometry">
                            <Array as="points">
                                <mxPoint x="861" y="1050"/>
                                <mxPoint x="929" y="1050"/>
                                <mxPoint x="929" y="1015"/>
                            </Array>
                            <mxPoint x="861" y="1079" as="sourcePoint"/>
                            <mxPoint x="860.3" y="1039" as="targetPoint"/>
                        </mxGeometry>
                    </mxCell>
                </UserObject>
                <UserObject label="" lucidchartObjectId="Cv1t0k_hdNng" id="azxdWyeYkW4kS3EPx_k4-46">
                    <mxCell style="html=1;jettySize=18;whiteSpace=wrap;fontSize=13;strokeWidth=1.5;rounded=1;arcSize=12;edgeStyle=orthogonalEdgeStyle;startArrow=none;;endArrow=none;;entryX=0.586;entryY=0;entryDx=0;entryDy=0;entryPerimeter=0;strokeColor=#A8201A;fontColor=#143642;labelBackgroundColor=#DAD2D8;exitX=1;exitY=0.5;exitDx=0;exitDy=0;" parent="1" source="azxdWyeYkW4kS3EPx_k4-39" target="azxdWyeYkW4kS3EPx_k4-43" edge="1">
                        <mxGeometry width="100" height="100" relative="1" as="geometry">
                            <Array as="points">
                                <mxPoint x="989" y="1015"/>
                                <mxPoint x="989" y="1050"/>
                                <mxPoint x="1068" y="1050"/>
                            </Array>
                            <mxPoint x="984" y="1015" as="sourcePoint"/>
                            <mxPoint x="1093.185" y="1010" as="targetPoint"/>
                        </mxGeometry>
                    </mxCell>
                </UserObject>
                <UserObject label="" lucidchartObjectId="aPhugz6SzI-E" id="azxdWyeYkW4kS3EPx_k4-47">
                    <mxCell style="html=1;overflow=block;blockSpacing=1;whiteSpace=wrap;ellipse;whiteSpace=wrap;fontSize=13;spacing=3.8;strokeOpacity=100;rounded=1;absoluteArcSize=1;arcSize=9;strokeWidth=2.3;fillColor=#FAE5C7;strokeColor=#0F8B8D;fontColor=#143642;" parent="1" vertex="1">
                        <mxGeometry x="952.75" y="950" width="10.5" height="10" as="geometry"/>
                    </mxCell>
                </UserObject>
                <mxCell id="azxdWyeYkW4kS3EPx_k4-48" value="" style="html=1;jettySize=18;whiteSpace=wrap;fontSize=13;strokeWidth=1.5;rounded=1;arcSize=12;edgeStyle=orthogonalEdgeStyle;startArrow=none;;endArrow=none;;exitX=0.5;exitY=0;entryX=0.5;entryY=1;exitDx=0;exitDy=0;entryDx=0;entryDy=0;strokeColor=#A8201A;fontColor=#143642;labelBackgroundColor=#DAD2D8;" parent="1" source="azxdWyeYkW4kS3EPx_k4-39" target="azxdWyeYkW4kS3EPx_k4-47" edge="1">
                    <mxGeometry width="100" height="100" relative="1" as="geometry">
                        <Array as="points"/>
                        <mxPoint x="958" y="970" as="sourcePoint"/>
                        <mxPoint x="958" y="930" as="targetPoint"/>
                    </mxGeometry>
                </mxCell>
                <mxCell id="azxdWyeYkW4kS3EPx_k4-57" value="" style="endArrow=none;html=1;rounded=0;shadow=0;fontSize=14;curved=1;strokeColor=#A8201A;fontColor=#143642;labelBackgroundColor=#DAD2D8;strokeWidth=2;sketch=0;" parent="1" edge="1">
                    <mxGeometry width="50" height="50" relative="1" as="geometry">
                        <mxPoint x="893" y="1040" as="sourcePoint"/>
                        <mxPoint x="1023" y="1040" as="targetPoint"/>
                        <Array as="points">
                            <mxPoint x="963" y="1130"/>
                        </Array>
                    </mxGeometry>
                </mxCell>
                <UserObject label="" lucidchartObjectId="Wk~tcFr8fC1q" id="azxdWyeYkW4kS3EPx_k4-72">
                    <mxCell style="html=1;jettySize=18;whiteSpace=wrap;fontSize=13;strokeWidth=1.5;rounded=1;arcSize=12;edgeStyle=orthogonalEdgeStyle;startArrow=none;;endArrow=none;;exitX=1.005;exitY=0.03;exitDx=0;exitDy=0;exitPerimeter=0;entryX=0.5;entryY=1;entryDx=0;entryDy=0;strokeColor=#A8201A;fontColor=#143642;labelBackgroundColor=#DAD2D8;" parent="1" target="azxdWyeYkW4kS3EPx_k4-73" edge="1">
                        <mxGeometry width="100" height="100" relative="1" as="geometry">
                            <Array as="points">
                                <mxPoint x="1028" y="847.5"/>
                                <mxPoint x="1091" y="847.5"/>
                            </Array>
                            <mxPoint x="1018.5999999999999" y="847.2" as="sourcePoint"/>
                            <mxPoint x="1080" y="843.5" as="targetPoint"/>
                        </mxGeometry>
                    </mxCell>
                </UserObject>
                <UserObject label="Atributo" lucidchartObjectId="Zk~tZb-w3sKj" id="azxdWyeYkW4kS3EPx_k4-73">
                    <mxCell style="html=1;overflow=block;blockSpacing=1;whiteSpace=wrap;ellipse;whiteSpace=wrap;fontSize=13;spacing=3.8;strokeOpacity=100;rounded=1;absoluteArcSize=1;arcSize=9;strokeWidth=2.3;noLabel=1;fillColor=#0F8B8D;strokeColor=#0F8B8D;fontColor=#143642;" parent="1" vertex="1">
                        <mxGeometry x="1110" y="840" width="11" height="10.5" as="geometry"/>
                    </mxCell>
                </UserObject>
                <UserObject label="Num_Ticket" lucidchartObjectId="Ul~tUlK2QmgD" id="azxdWyeYkW4kS3EPx_k4-74">
                    <mxCell style="html=1;overflow=block;blockSpacing=1;whiteSpace=wrap;;whiteSpace=wrap;fontSize=13;spacing=3.8;strokeOpacity=0;fillOpacity=0;rounded=1;absoluteArcSize=1;arcSize=9;strokeWidth=2.3;fillColor=#FAE5C7;strokeColor=#0F8B8D;fontColor=#143642;" parent="1" vertex="1">
                        <mxGeometry x="1128.5" y="833" width="75" height="23" as="geometry"/>
                    </mxCell>
                </UserObject>
                <UserObject label="" lucidchartObjectId="Wk~tcFr8fC1q" id="azxdWyeYkW4kS3EPx_k4-77">
                    <mxCell style="html=1;jettySize=18;whiteSpace=wrap;fontSize=13;strokeWidth=1.5;rounded=1;arcSize=12;edgeStyle=orthogonalEdgeStyle;startArrow=none;;endArrow=none;;entryX=0;entryY=0.5;entryDx=0;entryDy=0;strokeColor=#A8201A;fontColor=#143642;labelBackgroundColor=#DAD2D8;" parent="1" target="azxdWyeYkW4kS3EPx_k4-78" edge="1">
                        <mxGeometry width="100" height="100" relative="1" as="geometry">
                            <Array as="points">
                                <mxPoint x="1018" y="889.5"/>
                            </Array>
                            <mxPoint x="1018" y="889.5" as="sourcePoint"/>
                            <mxPoint x="928.5" y="819" as="targetPoint"/>
                        </mxGeometry>
                    </mxCell>
                </UserObject>
                <UserObject label="Atributo" lucidchartObjectId="Zk~tZb-w3sKj" id="azxdWyeYkW4kS3EPx_k4-78">
                    <mxCell style="html=1;overflow=block;blockSpacing=1;whiteSpace=wrap;ellipse;whiteSpace=wrap;fontSize=13;spacing=3.8;strokeOpacity=100;rounded=1;absoluteArcSize=1;arcSize=9;strokeWidth=2.3;noLabel=1;fillColor=#FAE5C7;strokeColor=#0F8B8D;fontColor=#143642;" parent="1" vertex="1">
                        <mxGeometry x="1074.5" y="884.25" width="11" height="10.5" as="geometry"/>
                    </mxCell>
                </UserObject>
                <UserObject label="" lucidchartObjectId="Wk~tcFr8fC1q" id="azxdWyeYkW4kS3EPx_k4-79">
                    <mxCell style="html=1;jettySize=18;whiteSpace=wrap;fontSize=13;strokeWidth=1.5;rounded=1;arcSize=12;edgeStyle=orthogonalEdgeStyle;startArrow=none;;endArrow=none;;entryX=0;entryY=0.5;entryDx=0;entryDy=0;exitX=0.427;exitY=1.007;exitDx=0;exitDy=0;strokeColor=#A8201A;fontColor=#143642;labelBackgroundColor=#DAD2D8;exitPerimeter=0;" parent="1" source="azxdWyeYkW4kS3EPx_k4-84" target="azxdWyeYkW4kS3EPx_k4-80" edge="1">
                        <mxGeometry width="100" height="100" relative="1" as="geometry">
                            <Array as="points">
                                <mxPoint x="1118" y="925"/>
                                <mxPoint x="1080" y="925"/>
                            </Array>
                            <mxPoint x="1017.6399999999999" y="914.1000000000001" as="sourcePoint"/>
                            <mxPoint x="928.5" y="849" as="targetPoint"/>
                        </mxGeometry>
                    </mxCell>
                </UserObject>
                <UserObject label="Atributo" lucidchartObjectId="Zk~tZb-w3sKj" id="azxdWyeYkW4kS3EPx_k4-80">
                    <mxCell style="html=1;overflow=block;blockSpacing=1;whiteSpace=wrap;ellipse;whiteSpace=wrap;fontSize=13;spacing=3.8;strokeOpacity=100;rounded=1;absoluteArcSize=1;arcSize=9;strokeWidth=2.3;noLabel=1;fillColor=#FAE5C7;strokeColor=#0F8B8D;fontColor=#143642;rotation=90;" parent="1" vertex="1">
                        <mxGeometry x="1074" y="949.5" width="11" height="10.5" as="geometry"/>
                    </mxCell>
                </UserObject>
                <UserObject label="" lucidchartObjectId="Wk~tcFr8fC1q" id="azxdWyeYkW4kS3EPx_k4-82">
                    <mxCell style="html=1;jettySize=18;whiteSpace=wrap;fontSize=13;strokeWidth=1.5;rounded=1;arcSize=12;edgeStyle=orthogonalEdgeStyle;startArrow=none;;endArrow=none;;entryX=0;entryY=0.5;entryDx=0;entryDy=0;strokeColor=#A8201A;fontColor=#143642;labelBackgroundColor=#DAD2D8;" parent="1" target="azxdWyeYkW4kS3EPx_k4-83" edge="1">
                        <mxGeometry width="100" height="100" relative="1" as="geometry">
                            <Array as="points">
                                <mxPoint x="1137" y="925"/>
                                <mxPoint x="1174" y="925"/>
                            </Array>
                            <mxPoint x="1137" y="900" as="sourcePoint"/>
                            <mxPoint x="928.86" y="880.25" as="targetPoint"/>
                        </mxGeometry>
                    </mxCell>
                </UserObject>
                <UserObject label="Atributo" lucidchartObjectId="Zk~tZb-w3sKj" id="azxdWyeYkW4kS3EPx_k4-83">
                    <mxCell style="html=1;overflow=block;blockSpacing=1;whiteSpace=wrap;ellipse;whiteSpace=wrap;fontSize=13;spacing=3.8;strokeOpacity=100;rounded=1;absoluteArcSize=1;arcSize=9;strokeWidth=2.3;noLabel=1;fillColor=#FAE5C7;strokeColor=#0F8B8D;fontColor=#143642;rotation=90;" parent="1" vertex="1">
                        <mxGeometry x="1168" y="950" width="11" height="10.5" as="geometry"/>
                    </mxCell>
                </UserObject>
                <UserObject label="&lt;font style=&quot;vertical-align: inherit&quot;&gt;&lt;font style=&quot;vertical-align: inherit&quot;&gt;&lt;font style=&quot;vertical-align: inherit&quot;&gt;&lt;font style=&quot;vertical-align: inherit&quot;&gt;&lt;font style=&quot;vertical-align: inherit&quot;&gt;&lt;font style=&quot;vertical-align: inherit&quot;&gt;Ubicación&lt;/font&gt;&lt;/font&gt;&lt;/font&gt;&lt;/font&gt;&lt;/font&gt;&lt;/font&gt;" lucidchartObjectId="Ul~tUlK2QmgD" id="azxdWyeYkW4kS3EPx_k4-84">
                    <mxCell style="html=1;overflow=block;blockSpacing=1;whiteSpace=wrap;;whiteSpace=wrap;fontSize=13;spacing=3.8;strokeOpacity=0;fillOpacity=0;rounded=1;absoluteArcSize=1;arcSize=9;strokeWidth=2.3;fillColor=#FAE5C7;strokeColor=#0F8B8D;fontColor=#143642;" parent="1" vertex="1">
                        <mxGeometry x="1085.8600000000001" y="878" width="75" height="22" as="geometry"/>
                    </mxCell>
                </UserObject>
                <UserObject label="" lucidchartObjectId="Wk~tcFr8fC1q" id="azxdWyeYkW4kS3EPx_k4-86">
                    <mxCell style="html=1;jettySize=18;whiteSpace=wrap;fontSize=13;strokeWidth=1.5;rounded=1;arcSize=12;edgeStyle=orthogonalEdgeStyle;startArrow=none;;endArrow=none;;exitX=0.542;exitY=1;exitDx=0;exitDy=0;strokeColor=#A8201A;fontColor=#143642;labelBackgroundColor=#DAD2D8;exitPerimeter=0;" parent="1" source="azxdWyeYkW4kS3EPx_k4-84" target="azxdWyeYkW4kS3EPx_k4-87" edge="1">
                        <mxGeometry width="100" height="100" relative="1" as="geometry">
                            <Array as="points"/>
                            <mxPoint x="1127.885" y="910.1540000000002" as="sourcePoint"/>
                            <mxPoint x="1129" y="940" as="targetPoint"/>
                        </mxGeometry>
                    </mxCell>
                </UserObject>
                <UserObject label="Atributo" lucidchartObjectId="Zk~tZb-w3sKj" id="azxdWyeYkW4kS3EPx_k4-87">
                    <mxCell style="html=1;overflow=block;blockSpacing=1;whiteSpace=wrap;ellipse;whiteSpace=wrap;fontSize=13;spacing=3.8;strokeOpacity=100;rounded=1;absoluteArcSize=1;arcSize=9;strokeWidth=2.3;noLabel=1;fillColor=#FAE5C7;strokeColor=#0F8B8D;fontColor=#143642;rotation=75;" parent="1" vertex="1">
                        <mxGeometry x="1121" y="950" width="11" height="10.5" as="geometry"/>
                    </mxCell>
                </UserObject>
                <UserObject label="&lt;font style=&quot;vertical-align: inherit&quot;&gt;&lt;font style=&quot;vertical-align: inherit&quot;&gt;&lt;font style=&quot;vertical-align: inherit&quot;&gt;&lt;font style=&quot;vertical-align: inherit&quot;&gt;&lt;font style=&quot;vertical-align: inherit&quot;&gt;&lt;font style=&quot;vertical-align: inherit&quot;&gt;Zona&lt;/font&gt;&lt;/font&gt;&lt;/font&gt;&lt;/font&gt;&lt;/font&gt;&lt;/font&gt;" lucidchartObjectId="Ul~tUlK2QmgD" id="azxdWyeYkW4kS3EPx_k4-88">
                    <mxCell style="html=1;overflow=block;blockSpacing=1;whiteSpace=wrap;;whiteSpace=wrap;fontSize=13;spacing=3.8;strokeOpacity=0;fillOpacity=0;rounded=1;absoluteArcSize=1;arcSize=9;strokeWidth=2.3;fillColor=#FAE5C7;strokeColor=#0F8B8D;fontColor=#143642;" parent="1" vertex="1">
                        <mxGeometry x="1042" y="960" width="75" height="22" as="geometry"/>
                    </mxCell>
                </UserObject>
                <UserObject label="&lt;font style=&quot;vertical-align: inherit&quot;&gt;&lt;font style=&quot;vertical-align: inherit&quot;&gt;&lt;font style=&quot;vertical-align: inherit&quot;&gt;&lt;font style=&quot;vertical-align: inherit&quot;&gt;&lt;font style=&quot;vertical-align: inherit&quot;&gt;&lt;font style=&quot;vertical-align: inherit&quot;&gt;Fila&lt;/font&gt;&lt;/font&gt;&lt;/font&gt;&lt;/font&gt;&lt;/font&gt;&lt;/font&gt;" lucidchartObjectId="Ul~tUlK2QmgD" id="azxdWyeYkW4kS3EPx_k4-89">
                    <mxCell style="html=1;overflow=block;blockSpacing=1;whiteSpace=wrap;;whiteSpace=wrap;fontSize=13;spacing=3.8;strokeOpacity=0;fillOpacity=0;rounded=1;absoluteArcSize=1;arcSize=9;strokeWidth=2.3;fillColor=#FAE5C7;strokeColor=#0F8B8D;fontColor=#143642;" parent="1" vertex="1">
                        <mxGeometry x="1085.5" y="960" width="75" height="22" as="geometry"/>
                    </mxCell>
                </UserObject>
                <UserObject label="&lt;font style=&quot;vertical-align: inherit&quot;&gt;&lt;font style=&quot;vertical-align: inherit&quot;&gt;&lt;font style=&quot;vertical-align: inherit&quot;&gt;&lt;font style=&quot;vertical-align: inherit&quot;&gt;&lt;font style=&quot;vertical-align: inherit&quot;&gt;&lt;font style=&quot;vertical-align: inherit&quot;&gt;Num_Asiento&lt;/font&gt;&lt;/font&gt;&lt;/font&gt;&lt;/font&gt;&lt;/font&gt;&lt;/font&gt;" lucidchartObjectId="Ul~tUlK2QmgD" id="azxdWyeYkW4kS3EPx_k4-90">
                    <mxCell style="html=1;overflow=block;blockSpacing=1;whiteSpace=wrap;;whiteSpace=wrap;fontSize=13;spacing=3.8;strokeOpacity=0;fillOpacity=0;rounded=1;absoluteArcSize=1;arcSize=9;strokeWidth=2.3;fillColor=#FAE5C7;strokeColor=#0F8B8D;fontColor=#143642;" parent="1" vertex="1">
                        <mxGeometry x="1149" y="959.5" width="75" height="22" as="geometry"/>
                    </mxCell>
                </UserObject>
                <UserObject label="&lt;div style=&quot;display: flex ; justify-content: flex-start ; text-align: left ; align-items: baseline ; font-size: 0 ; line-height: 1.25 ; margin-bottom: 7.5px ; margin-top: -2px&quot;&gt;&lt;span&gt;&lt;span style=&quot;font-size: 17.7px ; color: rgb(45 , 107 , 117)&quot;&gt;&lt;font face=&quot;Comic Sans MS&quot;&gt;&lt;font style=&quot;vertical-align: inherit&quot;&gt;&lt;font style=&quot;vertical-align: inherit&quot;&gt;&lt;font style=&quot;vertical-align: inherit&quot;&gt;&lt;font style=&quot;vertical-align: inherit&quot;&gt;&lt;font style=&quot;vertical-align: inherit&quot;&gt;&lt;font style=&quot;vertical-align: inherit&quot;&gt;Una página web de estadísticas deportivas desea realizar una base de datos para manejar la información de los partidos, equipos e hinchas que participaron en el mundial. &lt;/font&gt;&lt;/font&gt;&lt;/font&gt;&lt;/font&gt;&lt;/font&gt;&lt;/font&gt;&lt;br&gt;&lt;/font&gt;&lt;/span&gt;&lt;/span&gt;&lt;/div&gt;&lt;div style=&quot;display: flex ; justify-content: flex-start ; text-align: left ; align-items: baseline ; font-size: 0 ; line-height: 1.25 ; margin-bottom: 7.5px ; margin-top: -2px&quot;&gt;&lt;span&gt;&lt;span style=&quot;font-size: 17.7px ; color: rgb(45 , 107 , 117)&quot;&gt;&lt;font face=&quot;Comic Sans MS&quot;&gt;&lt;font style=&quot;vertical-align: inherit&quot;&gt;&lt;font style=&quot;vertical-align: inherit&quot;&gt;&lt;font style=&quot;vertical-align: inherit&quot;&gt;&lt;font style=&quot;vertical-align: inherit&quot;&gt;&lt;font style=&quot;vertical-align: inherit&quot;&gt;&lt;font style=&quot;vertical-align: inherit&quot;&gt;Todos los partidos tienen un ID que los identifica en el sistema, así como también la fase del torneo que se jugó en dicho partido, la duración y la fecha en la que se jugó, compuesta por el día y la hora.&lt;/font&gt;&lt;/font&gt;&lt;/font&gt;&lt;/font&gt;&lt;/font&gt;&lt;/font&gt;&lt;br&gt;&lt;/font&gt;&lt;/span&gt;&lt;/span&gt;&lt;/div&gt;&lt;div style=&quot;display: flex ; justify-content: flex-start ; text-align: left ; align-items: baseline ; font-size: 0 ; line-height: 1.25 ; margin-bottom: 7.5px ; margin-top: -2px&quot;&gt;&lt;span&gt;&lt;span style=&quot;font-size: 17.7px ; color: rgb(45 , 107 , 117)&quot;&gt;&lt;font face=&quot;Comic Sans MS&quot;&gt;&lt;font style=&quot;vertical-align: inherit&quot;&gt;&lt;font style=&quot;vertical-align: inherit&quot;&gt;&lt;font style=&quot;vertical-align: inherit&quot;&gt;&lt;font style=&quot;vertical-align: inherit&quot;&gt;&lt;font style=&quot;vertical-align: inherit&quot;&gt;&lt;font style=&quot;vertical-align: inherit&quot;&gt;El árbitro que dirigió ese partido y los equipos que jugaron el mismo. &lt;/font&gt;&lt;/font&gt;&lt;/font&gt;&lt;/font&gt;&lt;/font&gt;&lt;/font&gt;&lt;br&gt;&lt;/font&gt;&lt;/span&gt;&lt;/span&gt;&lt;/div&gt;&lt;div style=&quot;display: flex ; justify-content: flex-start ; text-align: left ; align-items: baseline ; font-size: 0 ; line-height: 1.25 ; margin-bottom: 7.5px ; margin-top: -2px&quot;&gt;&lt;span&gt;&lt;span style=&quot;font-size: 17.7px ; color: rgb(45 , 107 , 117)&quot;&gt;&lt;font face=&quot;Comic Sans MS&quot;&gt;&lt;font style=&quot;vertical-align: inherit&quot;&gt;&lt;font style=&quot;vertical-align: inherit&quot;&gt;&lt;font style=&quot;vertical-align: inherit&quot;&gt;&lt;font style=&quot;vertical-align: inherit&quot;&gt;&lt;font style=&quot;vertical-align: inherit&quot;&gt;&lt;font style=&quot;vertical-align: inherit&quot;&gt;De los árbitros conocemos su pasaporte, de que país son, el año en el que inició la actividad y su nombre y apellido, como también que árbitro reemplaza a cual en caso de lesión o enfermedad; &lt;/font&gt;&lt;/font&gt;&lt;/font&gt;&lt;/font&gt;&lt;/font&gt;&lt;font style=&quot;vertical-align: inherit&quot;&gt;&lt;font style=&quot;vertical-align: inherit&quot;&gt;&lt;font style=&quot;vertical-align: inherit&quot;&gt;&lt;font style=&quot;vertical-align: inherit&quot;&gt;&lt;font style=&quot;vertical-align: inherit&quot;&gt;sabemos que un arbitro puede ser reemplazado por varios y que un árbitro reemplaza solo a uno.&lt;/font&gt;&lt;/font&gt;&lt;/font&gt;&lt;/font&gt;&lt;/font&gt;&lt;/font&gt;&lt;br&gt;&lt;/font&gt;&lt;/span&gt;&lt;/span&gt;&lt;/div&gt;&lt;div style=&quot;display: flex ; justify-content: flex-start ; text-align: left ; align-items: baseline ; font-size: 0 ; line-height: 1.25 ; margin-bottom: 7.5px ; margin-top: -2px&quot;&gt;&lt;span&gt;&lt;span style=&quot;font-size: 17.7px ; color: rgb(45 , 107 , 117)&quot;&gt;&lt;font face=&quot;Comic Sans MS&quot;&gt;&lt;font style=&quot;vertical-align: inherit&quot;&gt;&lt;font style=&quot;vertical-align: inherit&quot;&gt;&lt;font style=&quot;vertical-align: inherit&quot;&gt;&lt;font style=&quot;vertical-align: inherit&quot;&gt;&lt;font style=&quot;vertical-align: inherit&quot;&gt;&lt;font style=&quot;vertical-align: inherit&quot;&gt;De los equipos que participan en los partidos conocemos el nombre de la selección, que es único entre el resto de las selecciones, el nombre del capitán de esa selección, el lugar donde entrena y el cuerpo técnico que la compone, también conocemos los distintos jugadores que forman parte de las selecciones, de los que sabemos su número de camiseta, que los distingue dentro de un equipo, la posición que ocupa en el campo, su nombre y apellido y el apodo de cada uno; &lt;/font&gt;&lt;/font&gt;&lt;/font&gt;&lt;/font&gt;&lt;/font&gt;&lt;font style=&quot;vertical-align: inherit&quot;&gt;&lt;font style=&quot;vertical-align: inherit&quot;&gt;&lt;font style=&quot;vertical-align: inherit&quot;&gt;&lt;font style=&quot;vertical-align: inherit&quot;&gt;&lt;font style=&quot;vertical-align: inherit&quot;&gt;es sabido que durante un mundial un jugador represent un solo país y que en distintas selecciones pueden haber jugadores con el mismo número.&lt;/font&gt;&lt;/font&gt;&lt;/font&gt;&lt;/font&gt;&lt;/font&gt;&lt;/font&gt;&lt;br&gt;&lt;/font&gt;&lt;/span&gt;&lt;/span&gt;&lt;/div&gt;&lt;div style=&quot;display: flex ; justify-content: flex-start ; text-align: left ; align-items: baseline ; line-height: 1.25 ; margin-bottom: 7.5px ; margin-top: -2px&quot;&gt;&lt;font face=&quot;Comic Sans MS&quot;&gt;&lt;font style=&quot;vertical-align: inherit&quot;&gt;&lt;font style=&quot;color: rgb(45 , 107 , 117) ; font-size: 17.7px ; vertical-align: inherit&quot;&gt;&lt;font style=&quot;vertical-align: inherit&quot;&gt;&lt;font style=&quot;vertical-align: inherit&quot;&gt;&lt;font style=&quot;vertical-align: inherit&quot;&gt;&lt;font style=&quot;vertical-align: inherit&quot;&gt;Los estadios son sede de distintos partidos, los mismos conocemos su nombre, la ciudad en la que se encuentran, su capacidad máxima y la cantidad de policías que hacen presente en cada partido; &lt;/font&gt;&lt;/font&gt;&lt;/font&gt;&lt;/font&gt;&lt;/font&gt;&lt;font style=&quot;vertical-align: inherit&quot;&gt;&lt;font style=&quot;vertical-align: inherit&quot;&gt;&lt;font style=&quot;vertical-align: inherit&quot;&gt;&lt;font color=&quot;#2d6b75&quot;&gt;&lt;span style=&quot;font-size: 17.7px&quot;&gt;&lt;font style=&quot;vertical-align: inherit&quot;&gt;&lt;font style=&quot;vertical-align: inherit&quot;&gt;también que los distintos hinchas pueden visitar los estadios, de ellos conocemos el número de ticket y la ubicación (compuesta de zona, fila y número de asiento) que tiene cada uno, hay que tener en cuenta que los hinchas pueden ser locales o visitantes, de los hinchas locales almacenaremos su tarjeta de residente. &lt;/font&gt;&lt;/font&gt;&lt;/span&gt;&lt;/font&gt;&lt;/font&gt;&lt;/font&gt;&lt;/font&gt;&lt;font style=&quot;color: rgb(45 , 107 , 117) ; font-size: 17.7px ; vertical-align: inherit&quot;&gt;&lt;font style=&quot;vertical-align: inherit&quot;&gt;&lt;font style=&quot;vertical-align: inherit&quot;&gt;&lt;font style=&quot;vertical-align: inherit&quot;&gt;&lt;font style=&quot;vertical-align: inherit&quot;&gt;Además, sabemos que un partido se juega solo en un estadio y que en un estadio pueden jugarse muchos partidos.&amp;nbsp;&lt;/font&gt;&lt;/font&gt;&lt;/font&gt;&lt;/font&gt;&lt;/font&gt;&lt;/font&gt;&lt;/font&gt;&lt;/div&gt;" lucidchartObjectId="-k_t4L34x9-v" id="azxdWyeYkW4kS3EPx_k4-91">
                    <mxCell style="html=1;overflow=block;blockSpacing=1;whiteSpace=wrap;;whiteSpace=wrap;fontSize=13;fontFamily=SF Cartoonist Hand;align=left;spacing=9.5;strokeColor=none;fillOpacity=0;rounded=1;absoluteArcSize=1;arcSize=9;fillColor=#ffffff;strokeWidth=0;" parent="1" vertex="1">
                        <mxGeometry x="200" y="-490" width="1233" height="510" as="geometry"/>
                    </mxCell>
                </UserObject>
                <UserObject label="" lucidchartObjectId="Wk~tcFr8fC1q" id="azxdWyeYkW4kS3EPx_k4-92">
                    <mxCell style="html=1;jettySize=18;whiteSpace=wrap;fontSize=13;strokeWidth=1.5;rounded=1;arcSize=12;edgeStyle=orthogonalEdgeStyle;startArrow=none;;endArrow=none;;exitX=-0.009;exitY=0.167;exitPerimeter=0;entryX=1.108;entryY=0.5;entryPerimeter=0;strokeColor=#A8201A;fontColor=#143642;labelBackgroundColor=#DAD2D8;" parent="1" target="azxdWyeYkW4kS3EPx_k4-93" edge="1">
                        <mxGeometry width="100" height="100" relative="1" as="geometry">
                            <Array as="points"/>
                            <mxPoint x="477.9200000000001" y="851.0300000000002" as="sourcePoint"/>
                        </mxGeometry>
                    </mxCell>
                </UserObject>
                <UserObject label="Atributo" lucidchartObjectId="Zk~tZb-w3sKj" id="azxdWyeYkW4kS3EPx_k4-93">
                    <mxCell style="html=1;overflow=block;blockSpacing=1;whiteSpace=wrap;ellipse;whiteSpace=wrap;fontSize=13;spacing=3.8;strokeOpacity=100;rounded=1;absoluteArcSize=1;arcSize=9;strokeWidth=2.3;noLabel=1;fillColor=#0F8B8D;strokeColor=#0F8B8D;fontColor=#143642;" parent="1" vertex="1">
                        <mxGeometry x="436" y="846.5" width="11" height="11" as="geometry"/>
                    </mxCell>
                </UserObject>
                <UserObject label="" lucidchartObjectId="yl~tORJ.H7FA" id="azxdWyeYkW4kS3EPx_k4-94">
                    <mxCell style="html=1;jettySize=18;whiteSpace=wrap;fontSize=13;strokeWidth=1.5;rounded=1;arcSize=12;edgeStyle=orthogonalEdgeStyle;startArrow=none;;endArrow=none;;entryX=1.108;entryY=0.5;entryPerimeter=0;strokeColor=#A8201A;fontColor=#143642;labelBackgroundColor=#DAD2D8;" parent="1" target="azxdWyeYkW4kS3EPx_k4-95" edge="1">
                        <mxGeometry width="100" height="100" relative="1" as="geometry">
                            <Array as="points">
                                <mxPoint x="478" y="882"/>
                            </Array>
                            <mxPoint x="478" y="882" as="sourcePoint"/>
                        </mxGeometry>
                    </mxCell>
                </UserObject>
                <UserObject label="Atributo" lucidchartObjectId="yl~t46uTt_mv" id="azxdWyeYkW4kS3EPx_k4-95">
                    <mxCell style="html=1;overflow=block;blockSpacing=1;whiteSpace=wrap;ellipse;whiteSpace=wrap;fontSize=13;spacing=3.8;strokeOpacity=100;rounded=1;absoluteArcSize=1;arcSize=9;strokeWidth=2.3;noLabel=1;fillColor=#FAE5C7;strokeColor=#0F8B8D;fontColor=#143642;" parent="1" vertex="1">
                        <mxGeometry x="435" y="877.75" width="11" height="11" as="geometry"/>
                    </mxCell>
                </UserObject>
                <UserObject label="Atributo" lucidchartObjectId="Cl~tk_2E.ZyV" id="azxdWyeYkW4kS3EPx_k4-96">
                    <mxCell style="html=1;overflow=block;blockSpacing=1;whiteSpace=wrap;ellipse;whiteSpace=wrap;fontSize=13;spacing=3.8;strokeOpacity=100;rounded=1;absoluteArcSize=1;arcSize=9;strokeWidth=2.3;noLabel=1;fillColor=#FAE5C7;strokeColor=#0F8B8D;fontColor=#143642;" parent="1" vertex="1">
                        <mxGeometry x="436" y="912.5" width="11" height="11" as="geometry"/>
                    </mxCell>
                </UserObject>
                <UserObject label="Nombre" lucidchartObjectId="Ul~tUlK2QmgD" id="azxdWyeYkW4kS3EPx_k4-97">
                    <mxCell style="html=1;overflow=block;blockSpacing=1;whiteSpace=wrap;;whiteSpace=wrap;fontSize=13;spacing=3.8;strokeOpacity=0;fillOpacity=0;rounded=1;absoluteArcSize=1;arcSize=9;strokeWidth=2.3;fillColor=#FAE5C7;strokeColor=#0F8B8D;fontColor=#143642;" parent="1" vertex="1">
                        <mxGeometry x="371" y="840.5" width="75" height="23" as="geometry"/>
                    </mxCell>
                </UserObject>
                <UserObject label="Ciudad" lucidchartObjectId="Qm~t1oRtlUaR" id="azxdWyeYkW4kS3EPx_k4-98">
                    <mxCell style="html=1;overflow=block;blockSpacing=1;whiteSpace=wrap;;whiteSpace=wrap;fontSize=13;spacing=3.8;strokeOpacity=0;fillOpacity=0;rounded=1;absoluteArcSize=1;arcSize=9;strokeWidth=2.3;fillColor=#FAE5C7;strokeColor=#0F8B8D;fontColor=#143642;" parent="1" vertex="1">
                        <mxGeometry x="386" y="870" width="45" height="23" as="geometry"/>
                    </mxCell>
                </UserObject>
                <UserObject label="" lucidchartObjectId="3m~t2plVe_fq" id="azxdWyeYkW4kS3EPx_k4-99">
                    <mxCell style="html=1;jettySize=18;whiteSpace=wrap;fontSize=13;strokeWidth=1.5;rounded=1;arcSize=12;edgeStyle=orthogonalEdgeStyle;startArrow=none;;endArrow=none;;exitX=1.108;exitY=0.5;exitPerimeter=0;entryX=-0.009;entryY=0.896;entryPerimeter=0;strokeColor=#A8201A;fontColor=#143642;labelBackgroundColor=#DAD2D8;" parent="1" source="azxdWyeYkW4kS3EPx_k4-96" edge="1">
                        <mxGeometry width="100" height="100" relative="1" as="geometry">
                            <Array as="points"/>
                            <mxPoint x="477.9200000000001" y="916.6399999999999" as="targetPoint"/>
                        </mxGeometry>
                    </mxCell>
                </UserObject>
                <UserObject label="Fecha" lucidchartObjectId="en~tOdhD3nCY" id="azxdWyeYkW4kS3EPx_k4-100">
                    <mxCell style="html=1;overflow=block;blockSpacing=1;whiteSpace=wrap;;whiteSpace=wrap;fontSize=13;spacing=3.8;strokeOpacity=0;fillOpacity=0;rounded=1;absoluteArcSize=1;arcSize=9;strokeWidth=2.3;fillColor=#FAE5C7;strokeColor=#0F8B8D;fontColor=#143642;" parent="1" vertex="1">
                        <mxGeometry x="375" y="906.5" width="75" height="23" as="geometry"/>
                    </mxCell>
                </UserObject>
                <UserObject label="Atributo" lucidchartObjectId="Cl~tk_2E.ZyV" id="azxdWyeYkW4kS3EPx_k4-104">
                    <mxCell style="html=1;overflow=block;blockSpacing=1;whiteSpace=wrap;ellipse;whiteSpace=wrap;fontSize=13;spacing=3.8;strokeOpacity=100;rounded=1;absoluteArcSize=1;arcSize=9;strokeWidth=2.3;noLabel=1;fillColor=#FAE5C7;strokeColor=#0F8B8D;fontColor=#143642;" parent="1" vertex="1">
                        <mxGeometry x="448" y="610" width="11" height="11" as="geometry"/>
                    </mxCell>
                </UserObject>
                <UserObject label="" lucidchartObjectId="3m~t2plVe_fq" id="azxdWyeYkW4kS3EPx_k4-105">
                    <mxCell style="html=1;jettySize=18;whiteSpace=wrap;fontSize=13;strokeWidth=1.5;rounded=1;arcSize=12;edgeStyle=orthogonalEdgeStyle;startArrow=none;;endArrow=none;;exitX=1.108;exitY=0.5;exitPerimeter=0;entryX=0.286;entryY=0.214;entryPerimeter=0;strokeColor=#A8201A;fontColor=#143642;labelBackgroundColor=#DAD2D8;entryDx=0;entryDy=0;" parent="1" source="azxdWyeYkW4kS3EPx_k4-104" target="v1fNZO51GPil4yL1GlYa-62" edge="1">
                        <mxGeometry width="100" height="100" relative="1" as="geometry">
                            <Array as="points">
                                <mxPoint x="492" y="616"/>
                                <mxPoint x="492" y="622"/>
                            </Array>
                            <mxPoint x="504.9600000000001" y="625.1399999999999" as="targetPoint"/>
                        </mxGeometry>
                    </mxCell>
                </UserObject>
                <UserObject label="Num_policia" lucidchartObjectId="en~tOdhD3nCY" id="azxdWyeYkW4kS3EPx_k4-106">
                    <mxCell style="html=1;overflow=block;blockSpacing=1;whiteSpace=wrap;;whiteSpace=wrap;fontSize=13;spacing=3.8;strokeOpacity=0;fillOpacity=0;rounded=1;absoluteArcSize=1;arcSize=9;strokeWidth=2.3;fillColor=#FAE5C7;strokeColor=#0F8B8D;fontColor=#143642;" parent="1" vertex="1">
                        <mxGeometry x="371" y="604" width="75" height="23" as="geometry"/>
                    </mxCell>
                </UserObject>
                <UserObject label="" lucidchartObjectId="Wk~tcFr8fC1q" id="2">
                    <mxCell style="html=1;jettySize=18;whiteSpace=wrap;fontSize=13;strokeWidth=1.5;rounded=1;arcSize=12;edgeStyle=orthogonalEdgeStyle;startArrow=none;;endArrow=none;;exitX=1.005;exitY=0.03;exitDx=0;exitDy=0;exitPerimeter=0;entryX=0.5;entryY=1;entryDx=0;entryDy=0;strokeColor=#A8201A;fontColor=#143642;labelBackgroundColor=#DAD2D8;" edge="1" parent="1">
                        <mxGeometry width="100" height="100" relative="1" as="geometry">
                            <Array as="points">
                                <mxPoint x="1038" y="857.5"/>
                                <mxPoint x="1101" y="857.5"/>
                            </Array>
                            <mxPoint x="1028.6" y="857.1999999999998" as="sourcePoint"/>
                            <mxPoint x="1125.5" y="860.5" as="targetPoint"/>
                        </mxGeometry>
                    </mxCell>
                </UserObject>
                <UserObject label="" lucidchartObjectId="Wk~tcFr8fC1q" id="3">
                    <mxCell style="html=1;jettySize=18;whiteSpace=wrap;fontSize=13;strokeWidth=1.5;rounded=1;arcSize=12;edgeStyle=orthogonalEdgeStyle;startArrow=none;;endArrow=none;;exitX=0.5;exitY=1;exitDx=0;exitDy=0;strokeColor=#A8201A;fontColor=#143642;labelBackgroundColor=#DAD2D8;" edge="1" parent="1" source="azxdWyeYkW4kS3EPx_k4-43">
                        <mxGeometry width="100" height="100" relative="1" as="geometry">
                            <Array as="points">
                                <mxPoint x="1058" y="1200"/>
                                <mxPoint x="1058" y="1200"/>
                                <mxPoint x="1058" y="1203"/>
                            </Array>
                            <mxPoint x="1031.6" y="1199.9999999999998" as="sourcePoint"/>
                            <mxPoint x="1058" y="1203" as="targetPoint"/>
                        </mxGeometry>
                    </mxCell>
                </UserObject>
                <UserObject label="Atributo" lucidchartObjectId="Zk~tZb-w3sKj" id="4">
                    <mxCell style="html=1;overflow=block;blockSpacing=1;whiteSpace=wrap;ellipse;whiteSpace=wrap;fontSize=13;spacing=3.8;strokeOpacity=100;rounded=1;absoluteArcSize=1;arcSize=9;strokeWidth=2.3;noLabel=1;fillColor=#FAE5C7;strokeColor=#0F8B8D;fontColor=#143642;rotation=90;" vertex="1" parent="1">
                        <mxGeometry x="1053.5" y="1200" width="11" height="10.5" as="geometry"/>
                    </mxCell>
                </UserObject>
                <UserObject label="&lt;font style=&quot;vertical-align: inherit&quot;&gt;&lt;font style=&quot;vertical-align: inherit&quot;&gt;&lt;font style=&quot;vertical-align: inherit&quot;&gt;&lt;font style=&quot;vertical-align: inherit&quot;&gt;&lt;font style=&quot;vertical-align: inherit&quot;&gt;&lt;font style=&quot;vertical-align: inherit&quot;&gt;Targeta_residente&lt;/font&gt;&lt;/font&gt;&lt;/font&gt;&lt;/font&gt;&lt;/font&gt;&lt;/font&gt;" lucidchartObjectId="Ul~tUlK2QmgD" id="5">
                    <mxCell style="html=1;overflow=block;blockSpacing=1;whiteSpace=wrap;;whiteSpace=wrap;fontSize=13;spacing=3.8;strokeOpacity=0;fillOpacity=0;rounded=1;absoluteArcSize=1;arcSize=9;strokeWidth=2.3;fillColor=#FAE5C7;strokeColor=#0F8B8D;fontColor=#143642;" vertex="1" parent="1">
                        <mxGeometry x="1010.86" y="1210.5" width="75" height="22" as="geometry"/>
                    </mxCell>
                </UserObject>
            </root>
        </mxGraphModel>
    </diagram>
</mxfile>